<svg id="logo" xmlns="http://www.w3.org/2000/svg" viewBox="0 0 635.9 409.59"><path d="M231.31,283.69s1-21-17-19-17,13-17,13,7,26,2,98c0,0-1.49,22.54,15,22,5.71-.18,22,4,21-9s-13-105,29-95c0,0,13,4,12,34s-5,66,8,68,30.79,3.05,27-13c-3.11-13.14-4-18-2-54s-5-54-27-63-45,13-47,15S231.31,288.69,231.31,283.69Z" transform="translate(-105.37 -84.7)" fill="#617d2b" stroke="#39431c" stroke-miterlimit="10" stroke-width="4"/><path d="M363.31,211.69c-.08-6.5,0-8-24-10,0,0-14-2-11,15s5,100,2,149c0,0-1.06,14.72,0,20,1,5,1,14,15,14s21-3,20-12-2-38-1-53c0,0,4,0,19,27s30,38,41,37c10.54-1,16.49-6.51,20.49-16.65a4.9,4.9,0,0,0-1.67-5.53c-.74-.5-1.73-1.25-3.82-2.82-5.6-4.2-33-33-43-50,0,0,22-11,39-42,0,0,9-12-7-18s-22.11,2.32-23,5c-1,3-1,21-38,47,0,0-3,2-3-5C364.31,310.69,363.81,256.7,363.31,211.69Z" transform="translate(-105.37 -84.7)" fill="#617d2b" stroke="#39431c" stroke-miterlimit="10" stroke-width="4"/><path d="M602.31,290.69c-.95-4.75-1.73-10.09-13-10.36a39.67,39.67,0,0,0-10.51,1.24l-4.79,1.2a7.91,7.91,0,0,0-5.76,9.71l.06.21c2,7,3,16,2,68a85.66,85.66,0,0,0,2.4,22.66,16.06,16.06,0,0,0,15.54,12.56,32.47,32.47,0,0,0,13.06-2.22s6-2,4-19c0,0-3-32-2-52C603.31,322.69,603.31,295.69,602.31,290.69Z" transform="translate(-105.37 -84.7)" fill="#617d2b" stroke="#39431c" stroke-miterlimit="10" stroke-width="4"/><circle cx="477.93" cy="172.99" r="14" fill="#617d2b" stroke="#39431c" stroke-miterlimit="10" stroke-width="4"/><path d="M422.31,186.69s8.45-12,20.63-3.41a22.66,22.66,0,0,1,9.32,16.48c1,11.15-2.16,29.19-31.95,33.93-44,7-58-80,11-105,0,0,33-17,79-15,45.55,2,78.35-3.88,91.61-21.47a1,1,0,0,1,1.13-.34c1.64.6,5.38,3,5.16,12.47A34.14,34.14,0,0,1,587,135c-7.72,3.18-18.34,5.43-32.71,4.71-40-2-97-12-133,12-9.62,7.42-24.41,13.89-24.36,39.83a29.18,29.18,0,0,0,5.86,17.8c3.75,4.87,9.5,8.87,17.5,5.37,15-7,8-24,2-23C419.31,191.69,420.31,189.69,422.31,186.69Z" transform="translate(-105.37 -84.7)" fill="#617d2b" stroke="#39431c" stroke-miterlimit="10" stroke-width="4"/><path d="M255.24,476.64c90.61-21.08,98.54-27,130.39-33,1.45-.28,2.9-.6,4.33-1C502,414.28,559.59,459.33,564.31,462.69c7,5,26.5,12.5,36.5,2.5s-1.11-20.22-6-24c-56-36-140-38-253,0s-154.5,35.5-184.5,23.5-11-37-5-46a148.43,148.43,0,0,0,10-19L152,407.08a2.84,2.84,0,0,0-1.93,1c-15.72,18.64-21.23,29.47-19.72,39.64,4,27,46.06,33.08,53,34a141.26,141.26,0,0,0,15.58,1A229.44,229.44,0,0,0,255.24,476.64Z" transform="translate(-105.37 -84.7)" fill="#617d2b" stroke="#39431c" stroke-miterlimit="10" stroke-width="4"/><path d="M129.87,411.76a.2.2,0,0,1,.27.29c-4,5.35-24.33,34.43-5.33,56.14,21,24,38,20.92,45,22,1.33.21,6,1-5,2s-46-5-55-28C101,441.78,117.9,419.37,129.87,411.76Z" transform="translate(-105.37 -84.7)" fill="#617d2b" stroke="#39431c" stroke-miterlimit="10" stroke-width="4"/><path d="M173.31,218.19s7-40.5,18-51.5c0,0-16.5-22-31.5-70,0,0,2-8.13-3.44-9.73a5.93,5.93,0,0,0-4.17.26c-1.88.88-4.14,3.22-2.89,9.47,0,0-10,43-31,70a122.8,122.8,0,0,1,17.5,51.5S155.81,224.69,173.31,218.19Z" transform="translate(-105.37 -84.7)" fill="#eee7bd" stroke="#3b4b21" stroke-miterlimit="10" stroke-width="4"/><path d="M175.81,235.19s12.82,103.57-13.46,167.69a22.11,22.11,0,0,1-3,4.81c-2.21,2.21-6.73,2.78-10.5-2.5,0,0-29-52-15-170C133.81,235.19,161.81,238.19,175.81,235.19Z" transform="translate(-105.37 -84.7)" fill="#617d2b" stroke="#3b4b21" stroke-miterlimit="10" stroke-width="4"/><path d="M181.81,227.19c-.1-3,1.06-10.23-10-9.11s-12.42,5.22-34.72.17c0,0-9.32-1.21-8.31,8.94.28,2.82,0,8,8,9C136.81,236.19,182.31,243.22,181.81,227.19Z" transform="translate(-105.37 -84.7)" fill="#eee7bd" stroke="#3b4b21" stroke-miterlimit="10" stroke-width="4"/><path d="M173.31,171.69S161.63,198.2,162,219l3.4-1S166.81,191.19,173.31,171.69Z" transform="translate(-105.37 -84.7)" fill="#3b4b21"/><path d="M156.81,157.19,155.88,86h-3.06v71.24S154.81,161.19,156.81,157.19Z" transform="translate(-105.37 -84.7)" fill="#3b4b21"/><circle cx="49.43" cy="79.49" r="8" fill="#3b4b21"/><path d="M481.31,257.69l8-8c18-21,36-20,36-20,14.81,1.56,12.6,11.63,10.91,16a2,2,0,0,0,1.36,2.65c17.13,4.24,21.73-9.64,21.73-9.64,8-27-16-32-16-32-26-6-53,22-53,22l-10,8" transform="translate(-105.37 -84.7)" fill="#617d2b" stroke="#39431c" stroke-miterlimit="10" stroke-width="4"/><path d="M465.31,245.69s-20-3-21,11,20,15,20,15v-8s-10,2.1-10-3,9-2,9-2Z" transform="translate(-105.37 -84.7)" fill="#617d2b" stroke="#39431c" stroke-miterlimit="10" stroke-width="4"/><path d="M487.31,271.69s22,38,24,77c0,0,2.34,27-10.92,41.85a26.93,26.93,0,0,1-22.58,8.65h0c-18.5-3.5-20.71-24.8-21-35-1.07-37.26,2.5-89.5,6-149,4.74-59.11,17-66,27-71,6.29-3.14,9-1.93,10.18-.61a2.88,2.88,0,0,1,.57,2.59c-9.3,37.35-11.76,84.35-12.75,121-2.44,37.47-3.45,77.3-2.12,102.91a12.81,12.81,0,0,0,1.33,5.24c2.29,4.35,4.71,1.91,6.31-1.37a26.09,26.09,0,0,0,2.33-8.21c1.83-15.46,2.89-27.53-9.35-67.07" transform="translate(-105.37 -84.7)" fill="#617d2b" stroke="#39431c" stroke-miterlimit="10" stroke-width="4"/><path d="M707.31,413.69c0,8.56-12.88,16-30,16-27,0-30-8.44-30-17,1-16,12.88-14,30-14S709.31,402.69,707.31,413.69ZM670.94,362.4a63.66,63.66,0,0,0,25.48-2.61c19-6.14,34.6-21,34.88-42.81.13-9.37-4-20.09-11.61-30.06-5.52-7.24-13.09-13.48-21.47-21.46-3.2-3-6.53-5.6-9.38-8.85-4.47-5.12-8-9.65-9.56-14.89-.89-3.07-1.9-5.95-4.29-7.83-2.63-2.06-4.2-3.85-6.32-5.81-2.63-2.44-4.44-.44-6.06,1-2.26,2,4.84,1.74,3.54,13.39-.69,6.13-5.24,13.19-5.56,13.63-6.13,8.42-11.85,13.12-19.7,22-12.21,13.76-17.8,29.05-17.3,36.74a45,45,0,0,0,7.48,24.59c3.77,5.72,7.24,8.27,9.24,10.27s-.32,4.43-.32,4.43c-18.88,20.74-8.57,35.65-5.68,37.57s0,3,0,3c-21,11-20.79,29.4-15,40,6,11,40,24,71,18s43-21,48-35-2-42-33-44c-26-2-33,0-43-2-4.93-1.23-5.3-4-4-6.78a5.49,5.49,0,0,1,5-3.22h.07Z" transform="translate(-105.37 -84.7)" fill="#617d2b" stroke="#39431c" stroke-miterlimit="10" stroke-width="3"/><path d="M666.52,240.83s-1-8.58-4.29-10.6c0,0,1.77-3.79,5.3-2.53s9.85,9.35,9.85,9.35S677.13,241.34,666.52,240.83Z" transform="translate(-105.37 -84.7)" fill="#a9b65f"/><path d="M677.13,236.79s-2.78,2.78-4.29,2.78-5.56-1.51-6.32-.5.51,6.81-3,12.12-12.62,17.68-15.65,19.45S627.38,294.38,625.11,305s-3.79,26,16.16,45.71,67.68,16.17,84.6-12.62-10.1-60.87-29.8-74.51A54.21,54.21,0,0,1,677.13,236.79Z" transform="translate(-105.37 -84.7)" fill="#617d2b"/><path d="M641.9,316.22c-3.25-28.42,14.2-44.05,22.48-55.81,7.58-10.77,5.55-19.45,9.85-18.94,4.54,0,4.54,10.6,13.64,18.43,14.9,12.12,39.65,31.07,40.4,55.56,0,23.58-20.12,35.36-43.69,35.36S644.52,339.12,641.9,316.22Z" transform="translate(-105.37 -84.7)" fill="#eee7bd"/><path d="M677,260.41c-2.53,7.57-6.57,10.1-12.13,13.89-6.31,4.29-13.78,13.47-15.91,19.44-7.29,20.52,0,35.43,8.34,43.19A27.39,27.39,0,0,0,673.72,344c9.18.88,17.68-4,17.68-4,17.68,6.06,28.78-8.81,30.56-17.43,5.56-29-20.71-46.46-27.53-49.5-14.14-7.07-15.66-10.35-15.66-10.35Z" transform="translate(-105.37 -84.7)" fill="#982824" stroke="#9f5c60" stroke-miterlimit="10" stroke-width="1.52"/><path d="M669.81,239.32s-2.4,12.9-8.59,21.21c-7.32,9.85-21.47,26.52-22,44.7s5.08,46.39,41.42,48.24c11.11-.25,32.58-.25,44.7-16.16" transform="translate(-105.37 -84.7)" fill="none" stroke="#3b4b21" stroke-miterlimit="10" stroke-width="1.01"/><path d="M663.15,230.78a2.58,2.58,0,0,0,1.15-.29c.2-.09.52-.3.75-.24a1.63,1.63,0,0,1,.47.32l.61.49,1.23,1a7.78,7.78,0,0,1,1.82,1.8,6.22,6.22,0,0,1,.57,1.12c.08.19.14.37.2.56a2.48,2.48,0,0,1,.17.59l.32-.55-.05,0,.32-.09a8.58,8.58,0,0,1-1.24-.16c-.43-.06-.87-.1-1.3-.18a1.85,1.85,0,0,1-1.43-1.31c-.51-1.3-.83-3.2-2.51-3.46l-.17,1.24a6.56,6.56,0,0,1,1.46-.13l-.32-.09c.8.4.9,1.8,1,2.55.18,1,.5,2.18,1.65,2.37a2.17,2.17,0,0,0,1.65-.34,1.42,1.42,0,0,0,.33-1.41,5.46,5.46,0,0,0-2-2.69.64.64,0,0,0-1,.13,2.61,2.61,0,0,0-.34,2.37,2.15,2.15,0,0,0,1.79,1.36.64.64,0,0,0,.61-.8,9.31,9.31,0,0,0-1.07-2.14.63.63,0,0,0-1.15.48c.15.87,1.07,1.37,1.71,1.86l2.31,1.78c.51.39,1.18-.36.86-.86-.91-1.43-1.13-3.21-2.53-4.31-.33-.25-.69-.47-1-.72s-.59-.65-.91-.95a4.64,4.64,0,0,0-2.8-.9.63.63,0,0,0-.63.63.64.64,0,0,0,.63.63,7.17,7.17,0,0,1,1.38.27,1.54,1.54,0,0,1,.82.6,14.77,14.77,0,0,0,1.84,1.51c1.15,1,1.35,2.65,2.13,3.87l.87-.86-1.95-1.5-1-.74c-.23-.18-.47-.34-.52-.64l-1.16.49a7.92,7.92,0,0,1,.94,1.83l.61-.8a.87.87,0,0,1-.64-.63,1.48,1.48,0,0,1,.28-1.2l-1,.13a4.36,4.36,0,0,1,1.64,2.22c0,.11,0,.1,0,.06l-.19,0a.77.77,0,0,1-.52,0c-.3-.18-.37-.7-.44-1a9,9,0,0,0-.73-2.67,2.48,2.48,0,0,0-1-1,3.59,3.59,0,0,0-1.78.05.64.64,0,0,0-.62.55.63.63,0,0,0,.45.69,1.6,1.6,0,0,1,1.16,1.17,14.25,14.25,0,0,0,.84,2.2,2.85,2.85,0,0,0,1.55,1.31,15.8,15.8,0,0,0,2.48.38c.36.05.8.19,1.13,0s.36-.66.25-1a9.82,9.82,0,0,0-.77-2,11.08,11.08,0,0,0-3.26-3.28l-1.1-.88a2,2,0,0,0-1.08-.5c-.72,0-1.26.56-1.94.54s-.82,1.23,0,1.26Z" transform="translate(-105.37 -84.7)" fill="#617d2b"/><path d="M673.18,236c-.72-1.07-1-2.41-1.88-3.36-.13-.13-.35,0-.25.19a11.29,11.29,0,0,0,2.26,2.87l.16-.27-.58-.44c-.12-.1-.25.06-.23.17,0,.26.26.91.63.77a.15.15,0,0,0,.11-.15.79.79,0,0,0-.27-.57.16.16,0,0,0-.27.15.68.68,0,0,0,.36.49c.13.08.32-.08.22-.21a1.58,1.58,0,0,0-.28-.3.15.15,0,0,0-.24,0,.38.38,0,0,0,.09.48c.15.13.37-.09.22-.22s-.06-.06,0-.1l-.25,0a1.75,1.75,0,0,1,.23.24l.21-.22a.39.39,0,0,1-.21-.3l-.27.15a.51.51,0,0,1,.19.35l.11-.15s-.13-.21-.15-.24a1.11,1.11,0,0,1-.09-.31l-.23.18.58.44c.17.12.32-.15.16-.27a5.52,5.52,0,0,1-1.12-1.24c-.36-.5-.69-1-1-1.52l-.25.19c.88.93,1.13,2.25,1.84,3.29.11.17.39,0,.27-.15Z" transform="translate(-105.37 -84.7)" fill="#617d2b"/><path d="M670.93,237.84a.16.16,0,0,0,0-.31.16.16,0,1,0,0,.31Z" transform="translate(-105.37 -84.7)" fill="#617d2b"/><path d="M670.93,238.23a.16.16,0,0,0,0-.32.16.16,0,0,0,0,.32Z" transform="translate(-105.37 -84.7)" fill="#617d2b"/><path d="M670.93,238.62a.16.16,0,0,0,0-.32.16.16,0,0,0,0,.32Z" transform="translate(-105.37 -84.7)" fill="#617d2b"/><path d="M671.44,238.79a.16.16,0,0,0,0-.32.16.16,0,0,0,0,.32Z" transform="translate(-105.37 -84.7)" fill="#617d2b"/><path d="M672,239.05a.16.16,0,0,0,0-.32.16.16,0,0,0,0,.32Z" transform="translate(-105.37 -84.7)" fill="#617d2b"/><path d="M672.9,239.13a.16.16,0,1,0,0-.31.16.16,0,0,0,0,.31Z" transform="translate(-105.37 -84.7)" fill="#617d2b"/><path d="M673.42,239a.16.16,0,0,0,0-.31.16.16,0,0,0,0,.31Z" transform="translate(-105.37 -84.7)" fill="#617d2b"/><path d="M673.89,238.62a.16.16,0,0,0,0-.32.16.16,0,0,0,0,.32Z" transform="translate(-105.37 -84.7)" fill="#617d2b"/><path d="M674.24,238.27a.16.16,0,0,0,0-.31.16.16,0,1,0,0,.31Z" transform="translate(-105.37 -84.7)" fill="#617d2b"/><path d="M674.45,237.89a.16.16,0,0,0,0-.32.16.16,0,0,0,0,.32Z" transform="translate(-105.37 -84.7)" fill="#617d2b"/><path d="M674.45,237.5a.16.16,0,0,0,0-.32.16.16,0,0,0,0,.32Z" transform="translate(-105.37 -84.7)" fill="#617d2b"/><path d="M674.28,237.07a.16.16,0,0,0,0-.32.16.16,0,0,0,0,.32Z" transform="translate(-105.37 -84.7)" fill="#617d2b"/><path d="M673.81,237.41a.16.16,0,0,0,0-.31.16.16,0,1,0,0,.31Z" transform="translate(-105.37 -84.7)" fill="#617d2b"/><path d="M673.65,237.69v0a.21.21,0,0,0,0,.11l0,0,.07,0a.22.22,0,0,0,.11,0,.15.15,0,0,0,0-.11v0a.16.16,0,0,0,0-.12l0,0h-.06a.16.16,0,0,0-.12,0,.21.21,0,0,0,0,.12Z" transform="translate(-105.37 -84.7)" fill="#617d2b"/><path d="M673.43,238.16v0a.16.16,0,0,0,.05.11.1.1,0,0,0,0,0h.06a.17.17,0,0,0,.16-.16v0a.14.14,0,0,0,0-.11.1.1,0,0,0-.05,0h-.06a.17.17,0,0,0-.16.16Z" transform="translate(-105.37 -84.7)" fill="#617d2b"/><path d="M673.12,238.66a.16.16,0,0,0,0-.32.16.16,0,0,0,0,.32Z" transform="translate(-105.37 -84.7)" fill="#617d2b"/><path d="M673.28,238.07v0a.16.16,0,0,0,0-.11.1.1,0,0,0-.05,0h-.06a.14.14,0,0,0-.11,0,.16.16,0,0,0,0,.11v0a.16.16,0,0,0,0,.11.1.1,0,0,0,0,0h.06a.17.17,0,0,0,.16-.16Z" transform="translate(-105.37 -84.7)" fill="#617d2b"/><path d="M673.12,237.76a.16.16,0,0,0,0-.32.16.16,0,0,0,0,.32Z" transform="translate(-105.37 -84.7)" fill="#617d2b"/><path d="M672.69,237.71a.16.16,0,0,0,0-.31.16.16,0,1,0,0,.31Z" transform="translate(-105.37 -84.7)" fill="#617d2b"/><path d="M672.55,237.94l0,.08a.1.1,0,0,0,0,0l0,0h.07l.06,0a.16.16,0,0,0,.07-.09v0a.11.11,0,0,0,0-.08l0-.09,0,0s0,0,0,0h-.07l-.06,0a.18.18,0,0,0-.07.1v0a.12.12,0,0,0,0,.08Z" transform="translate(-105.37 -84.7)" fill="#617d2b"/><path d="M672.59,238.16l0,.09a.14.14,0,0,0,0,.06.13.13,0,0,0,0,.06.14.14,0,0,0,0,.06l.05,0a.13.13,0,0,0,.12,0,.11.11,0,0,0,.09-.07l0-.09s0,0,0-.06a.13.13,0,0,0,0-.06.05.05,0,0,0,0,0,.08.08,0,0,0,0,0,.17.17,0,0,0-.12,0,.18.18,0,0,0-.1.07Z" transform="translate(-105.37 -84.7)" fill="#617d2b"/><path d="M672.17,238.66a.16.16,0,0,0,0-.32.16.16,0,0,0,0,.32Z" transform="translate(-105.37 -84.7)" fill="#617d2b"/><path d="M672.17,238a.16.16,0,1,0,0-.31.16.16,0,0,0,0,.31Z" transform="translate(-105.37 -84.7)" fill="#617d2b"/><path d="M671.1,237.84a.16.16,0,0,0,0-.31.16.16,0,1,0,0,.31Z" transform="translate(-105.37 -84.7)" fill="#617d2b"/><path d="M671.41,238.11v0a.16.16,0,0,0,.05.11.09.09,0,0,0,0,0l.06,0a.22.22,0,0,0,.11,0,.16.16,0,0,0,.05-.11v0a.16.16,0,0,0-.05-.11l0,0h-.06a.15.15,0,0,0-.11,0,.16.16,0,0,0-.05.11Z" transform="translate(-105.37 -84.7)" fill="#617d2b"/><path d="M671.79,238.49a.16.16,0,0,0,0-.32.16.16,0,0,0,0,.32Z" transform="translate(-105.37 -84.7)" fill="#617d2b"/><path d="M670.28,238.06a.16.16,0,0,0,0-.32.16.16,0,0,0,0,.32Z" transform="translate(-105.37 -84.7)" fill="#617d2b"/><path d="M670.28,238.4a.16.16,0,0,0,0-.31.16.16,0,0,0,0,.31Z" transform="translate(-105.37 -84.7)" fill="#617d2b"/><path d="M670.13,238l0,0a.16.16,0,0,0-.11,0h-.06a.1.1,0,0,0,0,0,.15.15,0,0,0,0,.22l0,0a.16.16,0,0,0,.11,0h.06a.1.1,0,0,0,0,0,.15.15,0,0,0,0-.22Z" transform="translate(-105.37 -84.7)" fill="#617d2b"/><path d="M669,238.1a.16.16,0,1,0,0-.31.16.16,0,0,0,0,.31Z" transform="translate(-105.37 -84.7)" fill="#617d2b"/><path d="M668.65,237.93a.16.16,0,0,0,0-.32.16.16,0,0,0,0,.32Z" transform="translate(-105.37 -84.7)" fill="#617d2b"/><path d="M668,237.89a.16.16,0,0,0,0-.32.16.16,0,0,0,0,.32Z" transform="translate(-105.37 -84.7)" fill="#617d2b"/><path d="M668.08,237.47l.09,0s0,0,0,0l0,0s0-.05,0-.07a.14.14,0,0,0,0-.06.16.16,0,0,0-.09-.07h0a.11.11,0,0,0-.08,0l-.09,0a.08.08,0,0,0,0,0,.07.07,0,0,0,0,.06.06.06,0,0,0,0,.06.13.13,0,0,0,0,.06.23.23,0,0,0,.1.07h0a.11.11,0,0,0,.08,0Z" transform="translate(-105.37 -84.7)" fill="#617d2b"/><path d="M669.08,237.76a.16.16,0,0,0,0-.32.16.16,0,0,0,0,.32Z" transform="translate(-105.37 -84.7)" fill="#617d2b"/><path d="M669.42,238.23a.16.16,0,0,0,0-.32.16.16,0,0,0,0,.32Z" transform="translate(-105.37 -84.7)" fill="#617d2b"/><path d="M669.72,237.8a.16.16,0,0,0,0-.32.16.16,0,0,0,0,.32Z" transform="translate(-105.37 -84.7)" fill="#617d2b"/><path d="M674.92,238a.16.16,0,1,0,0-.31.16.16,0,0,0,0,.31Z" transform="translate(-105.37 -84.7)" fill="#617d2b"/><path d="M674.75,237.2a.16.16,0,0,0,0-.32.16.16,0,0,0,0,.32Z" transform="translate(-105.37 -84.7)" fill="#617d2b"/><path d="M674.62,236.73a.16.16,0,0,0,0-.32.16.16,0,0,0,0,.32Z" transform="translate(-105.37 -84.7)" fill="#617d2b"/><path d="M675.14,237.54a.16.16,0,0,0,0-.31.16.16,0,0,0,0,.31Z" transform="translate(-105.37 -84.7)" fill="#617d2b"/><path d="M677.13,236.54s-2.27,2.78-4,3-4.8-1.77-6.57-.5" transform="translate(-105.37 -84.7)" fill="none" stroke="#3b4b21" stroke-miterlimit="10" stroke-width="1.01"/><path d="M674.61,233.51s-.26,2.78-2.28,3.28c-2.27.26-3.79-.25-5.81-.25" transform="translate(-105.37 -84.7)" fill="none" stroke="#3b4b21" stroke-miterlimit="10" stroke-width="1.01"/><path d="M663.75,232l1.84-1.37a.25.25,0,0,1,.33,0c.77.84,4.2,4.59,4.65,6.15" transform="translate(-105.37 -84.7)" fill="none" stroke="#3b4b21" stroke-miterlimit="10" stroke-width="0.51"/><path d="M641.77,284.78S638,292.35,637,297.41c-.93,1-3.54,1-4.05,3.78s1.27-.25,1.27-.25,1.51-1.26,1.51,1.77,1.7,22.77,6.57,31.32c.31.54,1.51,4.79-2.53,0s-5.3-6.32-6.82-11.37-.75-9.34-1.76-8.33-.44,3.4-.51,4.54-1,3.79-.76-5.05,2.53-19.95,10.61-29.55C640.51,284.27,643.54,281.75,641.77,284.78Z" transform="translate(-105.37 -84.7)" fill="#c5c970"/><path d="M648.72,298.27a18.54,18.54,0,0,1,5.71-.19,11.22,11.22,0,0,0,3.77-.46c3.55-.69,7.1.35,10.42,1.57.19.07.27-.24.08-.31-3.13-1.15-6.49-2.15-9.86-1.68-.81.11-1.59.35-2.39.5a8.79,8.79,0,0,1-2.94-.08,17,17,0,0,0-4.88.34c-.2,0-.11.34.09.31Z" transform="translate(-105.37 -84.7)" fill="#541615"/><path d="M653.27,288.1c.46.34.89.93,1.51.94a1.39,1.39,0,0,0,1.27-.65c.09-.18-.18-.34-.27-.16a1.15,1.15,0,0,1-1.06.5,1.41,1.41,0,0,1-.62-.34c-.22-.19-.43-.39-.67-.56s-.32.15-.16.27Z" transform="translate(-105.37 -84.7)" fill="#541615"/><path d="M655.92,290.5l4.46.46a13.35,13.35,0,0,1,4.42,1,4.36,4.36,0,0,1,1.6,1.22,2.42,2.42,0,0,1,.5,1c.06.31,0,.61,0,.92s.37.57.7.77l2,1.2c.17.11.33-.17.15-.27-.65-.4-1.38-.75-2-1.21a1.11,1.11,0,0,1-.53-.77c0-.16,0-.33,0-.49a2.27,2.27,0,0,0-.16-.62,4.26,4.26,0,0,0-2.37-2.14,13.86,13.86,0,0,0-4-.89c-1.61-.18-3.22-.33-4.82-.5-.21,0-.2.29,0,.32Z" transform="translate(-105.37 -84.7)" fill="#541615"/><path d="M671.52,295.66a9.48,9.48,0,0,1-1.57-.84c-.48-.3-1-.61-1.42-.94a3.21,3.21,0,0,1-1.57-2.82c0-.2-.28-.28-.31-.08a3.38,3.38,0,0,0,1.49,3,18.23,18.23,0,0,0,1.57,1.08,11.37,11.37,0,0,0,1.72.92c.19.08.27-.23.09-.31Z" transform="translate(-105.37 -84.7)" fill="#541615"/><path d="M666.28,290.41l-6.67-1.15a11.37,11.37,0,0,1-3-.8c-1.08-.53-.55-1.77-.7-2.71,0-.2-.33-.12-.3.08.13.84-.31,1.87.36,2.57a5.46,5.46,0,0,0,2.84,1c2.46.49,5,.87,7.42,1.29.2,0,.29-.26.09-.3Z" transform="translate(-105.37 -84.7)" fill="#541615"/><path d="M659.6,283.16a9.91,9.91,0,0,1,4.28,1.84,7,7,0,0,1,1.85,1.32,6,6,0,0,1,1,2c.06.19.37.11.3-.09a6.83,6.83,0,0,0-1-2,6.11,6.11,0,0,0-1.89-1.41c-1.41-.86-2.86-1.86-4.56-2-.2,0-.2.3,0,.32Z" transform="translate(-105.37 -84.7)" fill="#541615"/><path d="M663.75,276.54a1.08,1.08,0,0,0-.94.49,1.78,1.78,0,0,0-.22,1.09.16.16,0,0,0,.32,0,2.72,2.72,0,0,1,0-.28,1.5,1.5,0,0,1,0-.22,1.19,1.19,0,0,1,.15-.41.67.67,0,0,1,.11-.14.57.57,0,0,1,.15-.12,1,1,0,0,1,.42-.1.16.16,0,0,0,0-.31Z" transform="translate(-105.37 -84.7)" fill="#541615"/><path d="M666.73,281.37a4.36,4.36,0,0,1-.65-1.87,10.36,10.36,0,0,1,0-1.67,7.94,7.94,0,0,1,.85-3.34c.1-.17-.18-.33-.28-.16a8.51,8.51,0,0,0-.89,3.5,9.58,9.58,0,0,0,0,1.93,4.77,4.77,0,0,0,.67,1.76.15.15,0,0,0,.27-.15Z" transform="translate(-105.37 -84.7)" fill="#541615"/><path d="M665.78,283.3c1.34,1.6,2.64,3.27,4.09,4.78a14.09,14.09,0,0,1,2.07,2.16c.46.74.76,1.59,1.18,2.37a7.15,7.15,0,0,0,1.23,1.76,18.76,18.76,0,0,0,2,1.37,6.4,6.4,0,0,1,1,1.22c.26.32.58.58.86.88a3.88,3.88,0,0,1,1.08,3.28c0,.2.29.2.32,0a4.14,4.14,0,0,0-.33-2.3c-.44-1-1.31-1.52-1.9-2.37A4.36,4.36,0,0,0,675.7,295a5.62,5.62,0,0,1-2.18-2.3c-.46-.8-.77-1.68-1.23-2.47a9.57,9.57,0,0,0-1.75-1.9c-1.65-1.61-3.06-3.47-4.54-5.23-.13-.16-.35.06-.22.22Z" transform="translate(-105.37 -84.7)" fill="#541615"/><path d="M672.18,269.88c.15,1.48-.92,2.57-1.11,4a3.48,3.48,0,0,0,.14,1.5,16.63,16.63,0,0,1,.6,3,32,32,0,0,0,1.28,4.1c.42,1.6.08,3.26.31,4.89a16.12,16.12,0,0,0,3.73,7.76,10.81,10.81,0,0,0,1.64,1.74c.59.46,1.31.76,1.86,1.26,1.31,1.17,2.11,3.17,2.93,4.7.1.18.37,0,.27-.16a28.51,28.51,0,0,0-2.38-4.11c-.87-1.14-2.27-1.62-3.26-2.66a16.2,16.2,0,0,1-4.51-8.8c-.16-1.43.11-2.89-.18-4.3-.35-1.7-1.22-3.12-1.42-4.88s-1-3.27-.48-4.89c.39-1.13,1-1.85.89-3.11,0-.2-.34-.2-.31,0Z" transform="translate(-105.37 -84.7)" fill="#541615"/><path d="M675.46,265.84c0,1.1-.76,1.77-1.17,2.72a12.27,12.27,0,0,0-.33,2.72c-.37,1.83-2.53,2.93-2.26,5,0,.2.34.2.32,0-.27-2,2-3.18,2.27-5.08.15-1.06,0-2,.58-3a4.21,4.21,0,0,0,.9-2.33.16.16,0,1,0-.31,0Z" transform="translate(-105.37 -84.7)" fill="#541615"/><path d="M675.53,289.06a13.25,13.25,0,0,1-.88-3.22,8.57,8.57,0,0,1-.21-3.56c0-.2-.26-.29-.31-.09a8.74,8.74,0,0,0,.19,3.6,13.83,13.83,0,0,0,.94,3.43c.09.18.37,0,.27-.16Z" transform="translate(-105.37 -84.7)" fill="#541615"/><path d="M677.59,287.73a9.17,9.17,0,0,1-.91-4c.08-1.31.63-2.56.5-3.89,0-.2-.33-.2-.31,0,.13,1.38-.47,2.67-.51,4a9.51,9.51,0,0,0,.93,3.91c.08.19.38.11.3-.08Z" transform="translate(-105.37 -84.7)" fill="#541615"/><path d="M676.52,261.1c-.07,1.92-.21,3.85-.19,5.77a26,26,0,0,0,.8,5.18,28.76,28.76,0,0,1,.6,6.28,21.87,21.87,0,0,1-.08,3c-.14.83-.54,1.28-.46,2.16,0,.2.34.21.32,0-.08-.77.37-1.41.45-2.16.11-1,.08-2,.09-3a28,28,0,0,0-.45-5.57,31.86,31.86,0,0,1-1-5.89c0-1.92.12-3.85.19-5.77,0-.21-.31-.21-.32,0Z" transform="translate(-105.37 -84.7)" fill="#541615"/><path d="M680.31,296.5c1.62-2,.43-4.68-.45-6.74a14.83,14.83,0,0,1-1.15-4.39,12.66,12.66,0,0,0-.81-3.85c-.08-.18-.35,0-.27.16a13.76,13.76,0,0,1,.81,4.07,12.53,12.53,0,0,0,.75,3.2c.84,2.17,2.65,5.14.9,7.33-.13.15.09.38.22.22Z" transform="translate(-105.37 -84.7)" fill="#541615"/><path d="M677.25,260.2a2.65,2.65,0,0,0,.13,2.25,3.53,3.53,0,0,0,1,1,2.94,2.94,0,0,1,.52,2.62,24.52,24.52,0,0,0-.42,4.27,10.44,10.44,0,0,1-.7,4.73c-.08.19.19.35.28.16a9.35,9.35,0,0,0,.74-3.69c0-.76,0-1.5,0-2.26a14,14,0,0,1,.34-2.48c.18-1,.45-2.39-.21-3.27-.34-.46-.9-.67-1.17-1.19a2.41,2.41,0,0,1-.17-2c.09-.18-.18-.34-.27-.16Z" transform="translate(-105.37 -84.7)" fill="#541615"/><path d="M679.25,267.41c-.15,2.38,1.11,4.41,2.2,6.42a14.94,14.94,0,0,1,1.46,3.7c.27,1.13.68,2.88-.07,3.91a1.66,1.66,0,0,1-1.89.62,1.83,1.83,0,0,1-1.13-1.91,22.24,22.24,0,0,0-.6-3.32c-.41-2.37,1.21-4.48,1.15-6.84a.16.16,0,0,0-.32,0c.06,2.16-1.32,4.08-1.21,6.25,0,1.13.57,2.18.66,3.32.06.81-.07,1.57.52,2.24a2,2,0,0,0,3.39-.81,6,6,0,0,0,0-2.74,13.49,13.49,0,0,0-1-3.17c-1.11-2.5-3-4.78-2.86-7.67,0-.2-.3-.2-.31,0Z" transform="translate(-105.37 -84.7)" fill="#541615"/><path d="M681.06,288.37a18.13,18.13,0,0,0-1.64-7.16,7.35,7.35,0,0,1-.66-1.93c-.08-.58-.11-1.18-.14-1.78a7.86,7.86,0,0,1,.7-4.09c.1-.18-.18-.34-.27-.16a7.25,7.25,0,0,0-.76,3.48,11,11,0,0,0,.37,3.57c.44,1.19,1,2.33,1.34,3.55a14.18,14.18,0,0,1,.74,4.52.16.16,0,0,0,.32,0Z" transform="translate(-105.37 -84.7)" fill="#541615"/><path d="M682.36,286.17l-.41-3.79c0-.2-.34-.21-.32,0l.41,3.79c0,.2.34.2.32,0Z" transform="translate(-105.37 -84.7)" fill="#541615"/><path d="M684,282.72a10.45,10.45,0,0,0-.29,3.2c0,.2.33.2.32,0a10.17,10.17,0,0,1,.27-3.11.16.16,0,0,0-.3-.09Z" transform="translate(-105.37 -84.7)" fill="#541615"/><path d="M683.32,294.06a17.8,17.8,0,0,0-.55,4.17,27.3,27.3,0,0,0,.5,4.22c0,.2.34.12.31-.08a26.28,26.28,0,0,1-.49-4.14,16.5,16.5,0,0,1,.54-4.08c0-.2-.26-.29-.31-.09Z" transform="translate(-105.37 -84.7)" fill="#541615"/><path d="M681.63,295.87a5,5,0,0,0,.57,2.56,5.54,5.54,0,0,1,.58,2.76c0,.21.29.2.32,0a5.42,5.42,0,0,0-.49-2.59,5.28,5.28,0,0,1-.67-2.65c0-.19-.28-.28-.31-.08Z" transform="translate(-105.37 -84.7)" fill="#541615"/><path d="M681.27,266.59c.13,1.56,1,2.78,1.55,4.21a6.76,6.76,0,0,1-.43,5.39c-.09.18.18.34.28.16a7.23,7.23,0,0,0,.64-5c-.41-1.64-1.58-3-1.73-4.72,0-.2-.33-.2-.31,0Z" transform="translate(-105.37 -84.7)" fill="#541615"/><path d="M682.05,267.18a1.84,1.84,0,0,0,.66.8,8.47,8.47,0,0,1,1.2,1.12,8.84,8.84,0,0,1,1,1.2,4.77,4.77,0,0,1,.59,1.46c0,.2.35.11.31-.09a5.41,5.41,0,0,0-.57-1.44,6.73,6.73,0,0,0-1-1.18,10,10,0,0,0-1.13-1.13,4.53,4.53,0,0,1-.55-.43,1.28,1.28,0,0,1-.29-.47c-.08-.19-.35,0-.27.16Z" transform="translate(-105.37 -84.7)" fill="#541615"/><path d="M694,275.75c.79,1.76-1.1,3.17-1.3,4.84a25.21,25.21,0,0,1-.11,2.74c-.21.87-.51,1.73-.77,2.58a13.72,13.72,0,0,1-.88,2.6,12.31,12.31,0,0,1-1.67,1.94,9.31,9.31,0,0,0-1.86,3.6h.31c-.34-1.84.36-3.57,1.07-5.23.08-.18-.19-.34-.27-.16-.75,1.75-1.46,3.54-1.11,5.48,0,.15.27.14.31,0a10.78,10.78,0,0,1,2.83-4.57c1.13-1.25,1.42-3.05,1.89-4.61a11.54,11.54,0,0,0,.6-2.45c0-.46,0-.91,0-1.37a3.69,3.69,0,0,1,.46-1.81c.6-1.2,1.42-2.37.81-3.74-.08-.18-.35,0-.27.16Z" transform="translate(-105.37 -84.7)" fill="#541615"/><path d="M685.08,303.84a13.59,13.59,0,0,1,.36-2.69,8.58,8.58,0,0,1,1.17-2.27,5.78,5.78,0,0,0,.75-2.29c.16-1,.32-1.93.47-2.89,0-.2-.27-.28-.3-.08-.16,1-.31,1.92-.47,2.88a6.22,6.22,0,0,1-1,2.67,8.86,8.86,0,0,0-1.27,4.67c0,.2.3.2.31,0Z" transform="translate(-105.37 -84.7)" fill="#541615"/><path d="M685.17,303.75a5.19,5.19,0,0,1,.71-2c.34-.56.88-1,1.23-1.53a4.48,4.48,0,0,0,.41-1.92l.28-2.48c0-.2-.29-.2-.31,0l-.27,2.33a3.65,3.65,0,0,1-.67,2.28,6,6,0,0,0-1.69,3.21c0,.2.27.28.31.08Z" transform="translate(-105.37 -84.7)" fill="#541615"/><path d="M686.73,300.85a2.72,2.72,0,0,0,1.56-.56,4.59,4.59,0,0,1,.77-.38c.32-.11.66-.08,1-.21s.1-.38-.09-.3-.62.09-.92.19a3.49,3.49,0,0,0-.76.35,2.6,2.6,0,0,1-1.53.59c-.2,0-.2.3,0,.32Z" transform="translate(-105.37 -84.7)" fill="#541615"/><path d="M687.31,299.82a3.25,3.25,0,0,0,1.18-1.12,9.3,9.3,0,0,1,.77-1.19c.25-.28.53-.54.79-.83a14.92,14.92,0,0,0,2.42-3.89,31.73,31.73,0,0,0,1.47-4.31,15,15,0,0,0,.93-5.2c0-.2-.33-.2-.32,0a14.54,14.54,0,0,1-.88,5,31,31,0,0,1-1.47,4.36,14.74,14.74,0,0,1-2.29,3.73,15.87,15.87,0,0,0-1.28,1.44c-.42.65-.74,1.39-1.48,1.74-.18.09,0,.36.16.28Z" transform="translate(-105.37 -84.7)" fill="#541615"/><path d="M648.8,306.57c2.69.51,5.3-.41,7.82-1.26,2.83-1,5.76-1.92,8.78-1.34.2,0,.29-.27.09-.3a15.23,15.23,0,0,0-7.75.93c-2.84.93-5.81,2.24-8.85,1.66-.2,0-.29.27-.09.31Z" transform="translate(-105.37 -84.7)" fill="#541615"/><path d="M667.24,300.8l1.87.34a7.17,7.17,0,0,1,1.78.46,4.53,4.53,0,0,0,.69.28,3.38,3.38,0,0,1,.81.28,2,2,0,0,1,.59.57.86.86,0,0,1-.05,1c-.09.19.19.35.28.16a1.65,1.65,0,0,0,.23-.81,1.22,1.22,0,0,0-.32-.64,2.11,2.11,0,0,0-.64-.55,4.62,4.62,0,0,0-.91-.3c-.32-.1-.61-.28-.94-.39a6.63,6.63,0,0,0-1-.24c-.77-.15-1.54-.28-2.31-.42-.2,0-.28.26-.08.3Z" transform="translate(-105.37 -84.7)" fill="#541615"/><path d="M664.57,302.15l3.26-.26c.52,0,1-.05,1.55-.06a3.92,3.92,0,0,0,1.48-.23c.19-.08.1-.38-.08-.31a3.91,3.91,0,0,1-1.51.23c-.52,0-1,0-1.55.07l-3.15.24c-.21,0-.21.34,0,.32Z" transform="translate(-105.37 -84.7)" fill="#541615"/><path d="M672.82,304.87a21.5,21.5,0,0,0,3.84-.26c.2,0,.11-.34-.09-.31a21.43,21.43,0,0,1-3.75.26.16.16,0,1,0,0,.31Z" transform="translate(-105.37 -84.7)" fill="#541615"/><path d="M664.22,307.44a7.6,7.6,0,0,0,2.41-.84c.18-.09,0-.37-.16-.27a7.42,7.42,0,0,1-2.33.81c-.2,0-.12.34.08.3Z" transform="translate(-105.37 -84.7)" fill="#541615"/><path d="M650.38,308.2a3.92,3.92,0,0,0,1.81.43c.43,0,.82-.19,1.25-.2a.66.66,0,0,1,.55.24c.08.07.14.17.21.24l0,0h0a1.89,1.89,0,0,0-.06.18c0,.32.17.5.34.73s.14.3.22.44.28.36.22.39,0,.37.16.27.13-.47,0-.7a3.93,3.93,0,0,1-.26-.5c-.1-.16-.27-.27-.33-.45s.06-.23.06-.37a.52.52,0,0,0-.1-.23,1.77,1.77,0,0,0-.53-.49,1.11,1.11,0,0,0-.78-.09c-.23,0-.44.08-.66.13a1.56,1.56,0,0,1-.68,0,4.55,4.55,0,0,1-1.26-.36c-.19-.08-.35.19-.16.27Z" transform="translate(-105.37 -84.7)" fill="#541615"/><path d="M658.83,311.51c-1.87.56-3.53,1.58-5.34,2.27s-3.76.91-5.26-.3c-.16-.13-.38.1-.23.22a5.23,5.23,0,0,0,4.85.64c2.11-.64,3.95-1.89,6.07-2.52a.16.16,0,0,0-.09-.31Z" transform="translate(-105.37 -84.7)" fill="#541615"/><path d="M649.7,318.44a54.71,54.71,0,0,0,8.6-3.57q2.18-1,4.42-1.87a6.38,6.38,0,0,0,3-1.93c.12-.16-.15-.32-.27-.16-1,1.25-2.53,1.65-3.93,2.2-1.23.48-2.44,1-3.64,1.61a50.6,50.6,0,0,1-8.28,3.41.16.16,0,0,0,.09.31Z" transform="translate(-105.37 -84.7)" fill="#541615"/><path d="M660.46,317a3.7,3.7,0,0,0-1.56.89,17.48,17.48,0,0,0-1.46,1.25c-.15.14.07.36.22.22a17.45,17.45,0,0,1,1.39-1.19c.23-.18.47-.36.72-.53a2,2,0,0,1,.77-.34c.2,0,.12-.33-.08-.3Z" transform="translate(-105.37 -84.7)" fill="#541615"/><path d="M673,308a61.89,61.89,0,0,0,7.91-2c.62-.18,1.25-.35,1.86-.54a2,2,0,0,0,1-.62,1.73,1.73,0,0,0,.05-2.07c-.11-.17-.39,0-.27.16a1.43,1.43,0,0,1,.21,1.28,1.57,1.57,0,0,1-1.17,1c-1.06.33-2.14.62-3.21.93a50.16,50.16,0,0,1-6.48,1.58c-.2,0-.12.34.08.31Z" transform="translate(-105.37 -84.7)" fill="#541615"/><path d="M672.62,309.94a2.68,2.68,0,0,0,1.58-.61c.33-.18.68-.32,1-.5a6.87,6.87,0,0,0,.95-.64A19.62,19.62,0,0,1,680,306c.18-.09,0-.36-.16-.28a20,20,0,0,0-3.66,2,10.37,10.37,0,0,1-1.76,1.1c-.57.27-1.18.85-1.84.77-.2,0-.2.3,0,.32Z" transform="translate(-105.37 -84.7)" fill="#541615"/><path d="M669.57,315.11a23.46,23.46,0,0,1,4-2.87c.72-.38,1.48-.68,2.2-1.07s1.36-.85,2-1.3c1.3-.88,2.63-1.68,4-2.43a4.22,4.22,0,0,0,2.14-3,.16.16,0,0,0-.3-.08,5.22,5.22,0,0,1-.87,2,7.41,7.41,0,0,1-2.16,1.39c-1.32.75-2.56,1.59-3.82,2.42s-2.65,1.36-3.95,2.11a29,29,0,0,0-3.52,2.62c-.15.13.07.35.23.22Z" transform="translate(-105.37 -84.7)" fill="#541615"/><path d="M653.35,326.67a53.46,53.46,0,0,1,4.88-3.87,24.7,24.7,0,0,0,2-1.44,3,3,0,0,0,.67-.76s.2-.48.24-.5c.6-.22.18.77.14.85-.19.42-.08.66.35.83s1,.3,1.43.44a2.88,2.88,0,0,0,1.06.28c.55-.08,1.06-1,1.37-1.36a15.63,15.63,0,0,0,1.49-2.36c.09-.18-.18-.34-.28-.16a14.88,14.88,0,0,1-1.59,2.5c-.3.38-.7,1-1.24,1a5.31,5.31,0,0,1-1.32-.41,2.87,2.87,0,0,1-.72-.22c-.33-.21-.21-.33-.15-.61a1.5,1.5,0,0,0,.1-.59c0-.3-.26-.83-.66-.66-.23.11-.29.43-.4.62a3,3,0,0,1-.85,1c-.71.57-1.5,1-2.24,1.57-1.57,1.13-3.09,2.34-4.54,3.62-.15.14.08.36.23.23Z" transform="translate(-105.37 -84.7)" fill="#541615"/><path d="M654.35,329.72a2.1,2.1,0,0,0,1.16-.85l1.22-1.46c.13-.15-.1-.38-.23-.22l-1.15,1.38a2.05,2.05,0,0,1-1.08.85c-.2,0-.11.34.08.3Z" transform="translate(-105.37 -84.7)" fill="#541615"/><path d="M656.13,332.36a9.94,9.94,0,0,0,2.52-3.47.16.16,0,0,0-.21-.22c-1.3.58-1.39,2.35-2.63,3a.16.16,0,0,0,.08.3c.6,0,.93-.56,1.21-1l1.18-1.95c.11-.17-.17-.33-.27-.16l-1,1.72c-.23.38-.53,1.08-1.07,1.08l.08.3a3.5,3.5,0,0,0,1.32-1.5,3.15,3.15,0,0,1,1.31-1.48l-.22-.21a9.7,9.7,0,0,1-2.48,3.41c-.15.13.07.35.23.22Z" transform="translate(-105.37 -84.7)" fill="#541615"/><path d="M661.92,329.56c1.79.05,2.73-2,3.35-3.34.84-1.86,1.55-4,3.32-5.22.82-.56,1.78-.82,2.63-1.29.46-.25.85-.59,1.28-.88a2.48,2.48,0,0,1,.8-.39,1.11,1.11,0,0,1,.8.07.46.46,0,0,1,.27.67c-.06.47-.22.5-.58.73a3.37,3.37,0,0,0-.38.28,1.87,1.87,0,0,0-.47.74,4.59,4.59,0,0,0,0,2.21c0,.2.34.12.31-.08a5.57,5.57,0,0,1-.11-1.52,1.81,1.81,0,0,1,1-1.45c.52-.33.94-.8.58-1.44a1.39,1.39,0,0,0-1.84-.38,9.71,9.71,0,0,0-1.33.9,7.91,7.91,0,0,1-1.39.71,7.57,7.57,0,0,0-2.54,1.57,9,9,0,0,0-1.56,2.33c-.51,1-.9,2.1-1.42,3.12s-1.33,2.38-2.68,2.35a.16.16,0,1,0,0,.31Z" transform="translate(-105.37 -84.7)" fill="#541615"/><path d="M663.78,338.05a1.87,1.87,0,0,1,.38-.55,6.3,6.3,0,0,0,.37-.53,7.69,7.69,0,0,0,.56-1.2c.28-.71.55-2,1.53-1.94a.16.16,0,1,0,0-.31c-1,0-1.41,1-1.7,1.81a8.19,8.19,0,0,1-.63,1.42,9,9,0,0,0-.82,1.22c-.07.19.24.27.31.08Z" transform="translate(-105.37 -84.7)" fill="#541615"/><path d="M670.41,334.91c.79-.22,1.26-1,2-1.32.18-.09,0-.36-.16-.27-.67.36-1.14,1.07-1.89,1.29a.16.16,0,0,0,.09.3Z" transform="translate(-105.37 -84.7)" fill="#541615"/><path d="M672.34,341.16a20.19,20.19,0,0,1,.57-3.18,11.53,11.53,0,0,1,1.4-2.61l-.28-.16a19.73,19.73,0,0,0-1.31,2.84,4,4,0,0,0-.2,1.32,2.36,2.36,0,0,1-.27,1.38c-.11.17.16.33.28.16.5-.77.18-1.74.43-2.58a15.16,15.16,0,0,1,1.35-3,.16.16,0,0,0-.28-.16,12.19,12.19,0,0,0-1.39,2.59,19,19,0,0,0-.61,3.28c0,.19.28.28.31.08Z" transform="translate(-105.37 -84.7)" fill="#541615"/><path d="M676.26,326.15a7.62,7.62,0,0,0-.15-1.65c-.14-.54-.48-1-.63-1.53a2.53,2.53,0,0,1,.89-2.62c.16-.12,0-.4-.16-.27a2.84,2.84,0,0,0-1.11,2.52,4.85,4.85,0,0,0,.53,1.48,5.41,5.41,0,0,1,.32,2.07.16.16,0,1,0,.31,0Z" transform="translate(-105.37 -84.7)" fill="#541615"/><path d="M679.62,323.75c-.52,1.24-1.41,2.34-1.69,3.68a17.66,17.66,0,0,0-.13,2.06,3.84,3.84,0,0,1-1,2.08c-.13.15.09.38.22.22a4.89,4.89,0,0,0,1-1.65,12.82,12.82,0,0,0,.18-2.32c.19-1.46,1.19-2.66,1.75-4,.07-.19-.23-.27-.31-.08Z" transform="translate(-105.37 -84.7)" fill="#541615"/><path d="M677.16,333.66a16.64,16.64,0,0,0,3-5.47c.07-.19-.24-.28-.3-.08a16.54,16.54,0,0,1-2.93,5.33c-.13.15.09.38.22.22Z" transform="translate(-105.37 -84.7)" fill="#541615"/><path d="M680.41,331.53a12.22,12.22,0,0,1-.49,2.07.16.16,0,0,0,.3.09,11.43,11.43,0,0,0,.49-2.08.15.15,0,0,0-.11-.19.16.16,0,0,0-.19.11Z" transform="translate(-105.37 -84.7)" fill="#541615"/><path d="M682.22,336.47c.13,1.5.3,3,.5,4.47,0,.2.34.11.31-.08a13.45,13.45,0,0,1-.12-2.37c0-.37.06-.73.07-1.09a.45.45,0,0,0-.29-.51.15.15,0,0,0-.19.11,6.93,6.93,0,0,0,.13,1.7,10.17,10.17,0,0,1,0,1.83c0,.2.29.2.31,0a10.11,10.11,0,0,0,0-1.74,7.62,7.62,0,0,1-.16-1.71l-.19.11c.15,0,0,.72,0,.82q0,.5,0,1a17.89,17.89,0,0,0,.14,1.94l.31-.08c-.2-1.46-.37-2.92-.49-4.39,0-.2-.33-.2-.32,0Z" transform="translate(-105.37 -84.7)" fill="#541615"/><path d="M685.31,337.56c-.07.49-.08,1-.12,1.49l-.11,1.55c0,.2.3.2.32,0l.1-1.49c0-.49,0-1,.12-1.47,0-.19-.28-.28-.31-.08Z" transform="translate(-105.37 -84.7)" fill="#541615"/><path d="M687.5,336.47a3.23,3.23,0,0,0,.19,1.54c.18.45.52.94.36,1.44-.06.2.25.28.31.08a2.14,2.14,0,0,0-.3-1.45,3.06,3.06,0,0,1-.25-1.61c0-.2-.29-.2-.31,0Z" transform="translate(-105.37 -84.7)" fill="#541615"/><path d="M685.49,314c1.54,2.29,1.67,4.76,1.67,7.44v8a.16.16,0,0,0,.32,0c0-2.86,0-5.73,0-8.59a11.89,11.89,0,0,0-1.72-7c-.11-.17-.39,0-.27.16Z" transform="translate(-105.37 -84.7)" fill="#541615"/><path d="M685.7,313.92c-1,.5-.86-1-.79-1.37s.15-.65.21-1a15.74,15.74,0,0,0,.24-1.95,7.3,7.3,0,0,0-.19-3.32,1.23,1.23,0,0,0-.61-.58c-.53-.31-.77-.7-.31-1.21.11-.11.34-.33.51-.34,1-.09.68.89.4,1.18-.72.76-2,.5-2.7,1.35s-.68,2-1,2.88a18.14,18.14,0,0,0-1,3.78c-.09.65-.18,1.29-.32,1.93a4,4,0,0,0-.24,1.72c.14.6.81,1.13,1.4.71a1.9,1.9,0,0,0,.53-.92,3.87,3.87,0,0,1,1-1.49A8.74,8.74,0,0,0,685,313l-.27-.16a8.07,8.07,0,0,1-1.33,2.14c-.13.15.09.37.23.22A8.37,8.37,0,0,0,685,313c.08-.19-.18-.35-.27-.16-.52,1.06-1.57,1.62-2.38,2.43a3.8,3.8,0,0,0-.76,1.1c-.09.21-.15.43-.25.64s-.44,1-1.08.22c-.24-.26-.12-.84-.06-1.12.31-1.48.47-3,.81-4.47a17.12,17.12,0,0,1,.68-2c.23-.61.34-1.25.54-1.87a2.1,2.1,0,0,1,1.55-1.52,4.13,4.13,0,0,0,1.41-.56c.53-.42.79-1.42.06-1.79s-1.52.41-1.6,1.09a.85.85,0,0,0,.32.82c.28.21.55.12.8.47a2.28,2.28,0,0,1,.25,1.15,22.33,22.33,0,0,1-.5,5.22c-.13.78.29,2,1.3,1.51.18-.09,0-.36-.16-.27Z" transform="translate(-105.37 -84.7)" fill="#541615"/><path d="M684.49,306c1.28.16,1.51,2.46,1.78,3.43a26.91,26.91,0,0,1,1,4.43,17.2,17.2,0,0,0,.61,3.64c.38,1.18.7,2.44,1.18,3.58.21.5.67,1,1.24.66.76-.47.36-1.58.21-2.24-.62-2.68-1.23-5.35-1.85-8-.52-2.25-1.36-4.79-3.82-5.51-.2-.06-.28.25-.08.31,3.06.89,3.46,4.71,4.07,7.34l1,4.47c.16.69.36,1.39.48,2.09a2.26,2.26,0,0,1,.06.9c-.65.35-1,.25-1.11-.29-.12-.32-.22-.66-.32-1a22.37,22.37,0,0,1-1.25-4.31,35.59,35.59,0,0,0-.6-4.23,40.65,40.65,0,0,0-1.12-4.1c-.26-.72-.66-1.37-1.47-1.47-.2,0-.2.29,0,.31Z" transform="translate(-105.37 -84.7)" fill="#541615"/><path d="M693.85,327.66a3,3,0,0,0,.3,3.52,9.84,9.84,0,0,1,1.13,2,6.55,6.55,0,0,1,.69,2.55.16.16,0,0,0,.31,0,5.39,5.39,0,0,0-.49-2.13,15.27,15.27,0,0,0-.84-1.84,9.49,9.49,0,0,1-1.12-1.78,2.76,2.76,0,0,1,.3-2.19.16.16,0,0,0-.28-.16Z" transform="translate(-105.37 -84.7)" fill="#541615"/><path d="M703.52,338.34c-1.19-1.27-1.79-3-2.86-4.33a13.33,13.33,0,0,0-3.42-3.06.15.15,0,0,0-.23.09c-.3,1.14.91,1.72.82,2.85l.31,0c-.51-2.22-1.82-4.13-2.36-6.34a18.81,18.81,0,0,0-1.75-5.39c-1-1.68-2.33-3.2-2.76-5.16-.3-1.36-.37-3.31-2.2-3.29-.2,0-.2.32,0,.31,1.85,0,1.67,2.25,2,3.42a7.64,7.64,0,0,0,.72,1.72c.76,1.43,1.83,2.67,2.51,4.14.82,1.76.92,3.72,1.53,5.54s1.61,3.32,2,5.13a.16.16,0,0,0,.31,0,1.23,1.23,0,0,0-.09-.8c-.1-.28-1.09-1.36-.65-1.66.28-.2,2.15,1.77,2.43,2.07,1.39,1.54,2,3.56,3.47,5.06.14.15.36-.07.22-.22Z" transform="translate(-105.37 -84.7)" fill="#541615"/><path d="M685.64,305.37a22.45,22.45,0,0,1,4.44,3.26c1.43,1.38,3,2.56,4.45,4a35.83,35.83,0,0,1,4,4.55c.21.29.85,1.12.77,1.4s.07-.11-.22.1-.57.14-.76.5c-.46.91.77,2.75,1.15,3.54a28.33,28.33,0,0,0,3,4.92,35.69,35.69,0,0,0,3.48,4.08c1.29,1.25,3,2.21,3.48,4.06a.16.16,0,0,0,.3-.09,5.77,5.77,0,0,0-2-2.8,33.07,33.07,0,0,1-3.39-3.41,33.89,33.89,0,0,1-3.36-4.56c-.42-.7-.8-1.42-1.16-2.15-.2-.4-.39-.81-.57-1.22l-.42-1c-.37-.58-.14-1.08.69-1.49.11,0,.22-.09.19-.19a10.66,10.66,0,0,0-2.42-3.69,37.21,37.21,0,0,0-3.83-4c-1.28-1.1-2.53-2.23-3.81-3.32a24.68,24.68,0,0,0-3.85-2.74c-.18-.1-.34.17-.16.27Z" transform="translate(-105.37 -84.7)" fill="#541615"/><path d="M686.4,305.62c1.8,1.3,4.1,1.61,6.05,2.63,2.34,1.21,4.59,2.56,7,3.67a16.43,16.43,0,0,0,3.14,1.35,2.24,2.24,0,0,0,1.9-.57,4.65,4.65,0,0,1,4.74-.09c1.21.56,3.37,1.52,3.49,3,0,.21.33.21.32,0-.16-1.86-2.79-3-4.29-3.57a5.25,5.25,0,0,0-3-.3,4.42,4.42,0,0,0-1.39.65,2.83,2.83,0,0,1-3,0,85.14,85.14,0,0,1-7.74-3.93c-2.22-1.25-4.93-1.65-7-3.13-.17-.12-.33.16-.16.27Z" transform="translate(-105.37 -84.7)" fill="#541615"/><path d="M698.49,312.85c2.32,1.47,4.63,3,7,4.41a21.94,21.94,0,0,0,6.83,2.95.16.16,0,0,0,.08-.31,22.05,22.05,0,0,1-7-3c-2.28-1.39-4.53-2.85-6.78-4.28-.18-.11-.33.16-.16.27Z" transform="translate(-105.37 -84.7)" fill="#541615"/><path d="M718.77,322.28a38,38,0,0,0-4.67-2.39c-1.73-.72-3.52-1.19-5.29-1.79a12.21,12.21,0,0,1-2.65-1.21c-.74-.47-1.39-1.06-2.13-1.53-1.41-.9-3-1.43-4.22-2.65a.16.16,0,0,0-.22.22,15.53,15.53,0,0,0,3.78,2.4c1.54.88,2.77,2.06,4.43,2.73s3.52,1.09,5.25,1.75a36.31,36.31,0,0,1,5.56,2.74c.17.11.33-.17.16-.27Z" transform="translate(-105.37 -84.7)" fill="#541615"/><path d="M700.69,317.54c-.64-2.94-3-4.66-5.27-6.39a69,69,0,0,0-8-5.21c-.18-.1-.34.17-.16.27a67.71,67.71,0,0,1,7.41,4.77c2.39,1.77,5,3.57,5.72,6.65,0,.2.35.11.3-.09Z" transform="translate(-105.37 -84.7)" fill="#541615"/><path d="M701.58,316.73c.74.7,1.84.86,2.68,1.43a6.08,6.08,0,0,1,2.06,2.46,5.78,5.78,0,0,1,.46,1.57c.05.41,0,.88.37,1.16a5.85,5.85,0,0,0,1.54.65l1.9.75c.19.07.27-.24.09-.31l-1.83-.71-.88-.34c-.4-.16-.74-.26-.82-.72a13.35,13.35,0,0,0-.26-1.43,6.4,6.4,0,0,0-2.32-3.24,5.63,5.63,0,0,0-1.17-.67,4.74,4.74,0,0,1-1.59-.83c-.15-.14-.37.09-.23.23Z" transform="translate(-105.37 -84.7)" fill="#541615"/><path d="M712.51,333.92a3.6,3.6,0,0,1-1.69-.81,3.52,3.52,0,0,1-.61-.67,8.36,8.36,0,0,1-.46-.83c-.31-.54-.87-.68-1.41-.91a2.62,2.62,0,0,1-1.34-1.36c-.08-.19-.35,0-.27.16a2.85,2.85,0,0,0,1.23,1.36c.29.16.62.25.93.4a1.41,1.41,0,0,1,.71.75,4,4,0,0,0,2.83,2.22c.2,0,.28-.27.08-.31Z" transform="translate(-105.37 -84.7)" fill="#541615"/><path d="M691.81,307.57c2.46.58,4.88.08,7.35-.19a6.55,6.55,0,0,1,4.36.56,31,31,0,0,0,3.29,2c2.07,1,4.26,1.59,6.37,2.45,1.41.59,2.78,1.27,4.13,2,1.13.6,3.17,1.3,3.33,2.78,0,.2.34.21.32,0-.22-2-3.21-2.93-4.72-3.69-2.51-1.27-5.14-2.14-7.76-3.16a20.67,20.67,0,0,1-4.08-2.09,5.53,5.53,0,0,0-3-1.24c-3.2-.13-6.28,1.08-9.48.33-.2,0-.28.26-.08.3Z" transform="translate(-105.37 -84.7)" fill="#541615"/><path d="M720.86,313.37a11.44,11.44,0,0,1-3.62-1.2l-3.38-1.49a25.24,25.24,0,0,0-2.76-1.11,12.51,12.51,0,0,0-3-.39,8.47,8.47,0,0,1-1.73-.3,4.15,4.15,0,0,1-1.63-.68c-.32-.32.44.08.56.15a4.88,4.88,0,0,0,.58.34,7.84,7.84,0,0,0,1.31.46,6.5,6.5,0,0,0,2.43.37,4,4,0,0,0,1.21-.57,4.8,4.8,0,0,1,2-.55c.2,0,.2-.34,0-.32a5.38,5.38,0,0,0-2.12.59,2.66,2.66,0,0,1-1.81.51c-.44-.06-.89-.17-1.32-.27a7.34,7.34,0,0,1-1.5-.5c-.33-.16-.61-.41-.94-.57s-.71-.19-.93.2a.16.16,0,0,0,.05.22,8.62,8.62,0,0,0,3.74,1.23,18.12,18.12,0,0,1,2.22.17,11.81,11.81,0,0,1,2.39.81c1.46.62,2.91,1.27,4.36,1.91a12.5,12.5,0,0,0,3.92,1.31c.2,0,.2-.3,0-.32Z" transform="translate(-105.37 -84.7)" fill="#541615"/><path d="M717.31,306.34c-1.36,0-3-.33-4.11.64a2,2,0,0,0-.18,2.8c.82,1.1,2.28,1.31,3.56,1.38s2.6,0,3.41-1c.66-.84,1.15-2.39.22-3.19a5.4,5.4,0,0,0-1.8-.84c-.89-.32-1.79-.61-2.7-.86-1.83-.52-3.68-.92-5.54-1.31-1.35-.28-2.86-.55-4.12.21a2.14,2.14,0,0,0-.77,3.07,3.26,3.26,0,0,0,1.78.94c1.06.29,2.13.56,3.19.84.2.05.28-.26.09-.31-1.17-.3-2.36-.57-3.52-.93a2.12,2.12,0,0,1-1.54-1.16,1.9,1.9,0,0,1,.68-2c1-.85,2.5-.68,3.73-.43s2.4.5,3.59.78,2.3.57,3.43.92c.59.18,1.17.38,1.75.59s1.35.38,1.69.86a2.25,2.25,0,0,1-.17,2.25,2.39,2.39,0,0,1-1.66,1.2,7.46,7.46,0,0,1-3.29-.12c-1.32-.33-3.08-1.94-1.75-3.31,1-1.05,2.73-.64,4-.68.2,0,.2-.32,0-.31Z" transform="translate(-105.37 -84.7)" fill="#541615"/><path d="M705.32,306a25.45,25.45,0,0,1-4.5-.82,31.1,31.1,0,0,1-4.26-1.14c-.19-.07-.27.23-.09.31a33.29,33.29,0,0,0,4.41,1.17,23.89,23.89,0,0,0,4.44.79c.2,0,.2-.3,0-.31Z" transform="translate(-105.37 -84.7)" fill="#541615"/><path d="M686,304.85a1.65,1.65,0,0,0,2.11.19,13.24,13.24,0,0,0,1.32-1,2.63,2.63,0,0,1,.85-.47,4.55,4.55,0,0,1,1-.07,2.82,2.82,0,0,0,1.18-.44,4.59,4.59,0,0,1,1.94-.64l4.12-.51c.2,0,.2-.34,0-.31l-3.76.46a8.54,8.54,0,0,0-1.33.2,5.45,5.45,0,0,0-1.31.63,4.45,4.45,0,0,1-1.69.32,2.56,2.56,0,0,0-1.06.45c-.84.58-2.17,2.16-3.19,1-.13-.16-.36.07-.22.22Z" transform="translate(-105.37 -84.7)" fill="#541615"/><path d="M685.62,304.69l0,.37.2.16c0-.4.38-.61.7-.75s.74-.28,1.1-.42c.67-.27,1.34-.55,2-.88A12.6,12.6,0,0,0,691.5,302c.61-.47,1.13-1,1.76-1.49.16-.12,0-.39-.16-.27-.68.48-1.24,1.11-1.92,1.6a12.52,12.52,0,0,1-2.16,1.25c-.76.36-1.56.67-2.35,1-.5.2-1.16.49-1.12,1.13a.16.16,0,0,0,.2.15.5.5,0,0,0,0-1c-.2,0-.28.27-.08.31Z" transform="translate(-105.37 -84.7)" fill="#541615"/><path d="M685.55,304.36a12.54,12.54,0,0,0,4.48-4.61.16.16,0,0,0-.28-.15,12.19,12.19,0,0,1-4.36,4.49c-.17.11,0,.38.16.27Z" transform="translate(-105.37 -84.7)" fill="#541615"/><path d="M686.29,304.58a4.94,4.94,0,0,0,1.37-1,5.64,5.64,0,0,0,.46-.7,1.78,1.78,0,0,1,.63-.59,2.57,2.57,0,0,0,1.14-1,7.57,7.57,0,0,0,.31-1.63c0-.2-.25-.29-.3-.09a7,7,0,0,1-.3,1.59c-.24.48-.77.66-1.19.94a2.1,2.1,0,0,0-.48.46c-.16.23-.27.49-.45.71a4.61,4.61,0,0,1-1.35,1c-.18.1,0,.37.16.27Z" transform="translate(-105.37 -84.7)" fill="#541615"/><path d="M695,301.48a16,16,0,0,1,4.53-3.44c1.81-.84,4.31-.6,6.23-.3a6.78,6.78,0,0,0,2,.15,9.46,9.46,0,0,0,2.3-.78l5.54-2.23c.19-.07.11-.38-.08-.3L709.57,297a6.2,6.2,0,0,1-2.66.64c-1-.05-2-.36-3.1-.39a9.54,9.54,0,0,0-4.82.73,17.16,17.16,0,0,0-4.26,3.32c-.14.14.08.37.22.22Z" transform="translate(-105.37 -84.7)" fill="#541615"/><path d="M710,297c.15-.33.56-.41.83-.62a2,2,0,0,0,.55-.75c.24-.55.37-1.29.92-1.63a.15.15,0,0,0-.15-.27c-.6.36-.76,1.07-1,1.67a1.62,1.62,0,0,1-.56.78c-.3.2-.68.3-.84.66-.09.18.18.34.27.16Z" transform="translate(-105.37 -84.7)" fill="#541615"/><path d="M710.48,297.8a6,6,0,0,0-2.45,1.09l-1.22.76a1.73,1.73,0,0,1-1.4.32l0,.31c.9.11,1.79.19,2.69.24q.66,0,1.32.06c.22,0,.66.1.78-.16s0-.2,0-.31a.81.81,0,0,1-.1-.57,6.46,6.46,0,0,0,.22-1,2,2,0,0,1,0-.49c.06-.21.23-.24.44-.26s.45-.05.59-.27-.15-.32-.27-.16-.55.1-.75.2a.66.66,0,0,0-.34.52,7.87,7.87,0,0,1-.12,1,1.81,1.81,0,0,0-.12.92s.14.29.13.3a4.48,4.48,0,0,1-.63,0c-.42,0-.84,0-1.26-.06q-1.29-.07-2.58-.24c-.18,0-.2.26,0,.31.88.29,1.71-.39,2.41-.82a6.77,6.77,0,0,1,2.75-1.33c.2,0,.2-.34,0-.32Z" transform="translate(-105.37 -84.7)" fill="#541615"/><path d="M705,303c1.07-.38,2.16-.76,3.26-1.06a7.43,7.43,0,0,1,4,0,14.6,14.6,0,0,0,3.17.27,8.88,8.88,0,0,1,3.74,1.12c.18.09.34-.18.16-.27a9.7,9.7,0,0,0-3.24-1.13c-.62-.07-1.24,0-1.86-.05a9.06,9.06,0,0,1-2.13-.31c-2.5-.63-4.81.26-7.15,1.11-.19.07-.11.37.08.3Z" transform="translate(-105.37 -84.7)" fill="#541615"/><path d="M703.84,295a4.5,4.5,0,0,0-2.24,1.24,11.23,11.23,0,0,1-2.56,1.63c-.18.09,0,.36.16.27a11.09,11.09,0,0,0,2.39-1.48,4.89,4.89,0,0,1,2.25-1.35c.19,0,.2-.34,0-.31Z" transform="translate(-105.37 -84.7)" fill="#541615"/><path d="M705.91,289.57a28.22,28.22,0,0,0-3.62,3.29l-3.85,3.85a.16.16,0,0,0,.23.23l3.74-3.75a29,29,0,0,1,3.66-3.35c.17-.11,0-.39-.16-.27Z" transform="translate(-105.37 -84.7)" fill="#541615"/><path d="M704.05,289.6a12.56,12.56,0,0,0-1.9,1.31,3.8,3.8,0,0,0-1,1.81c-.07.19.24.27.3.08a3.47,3.47,0,0,1,1-1.7,12.12,12.12,0,0,1,1.8-1.22.16.16,0,0,0-.16-.28Z" transform="translate(-105.37 -84.7)" fill="#541615"/><path d="M710.88,288.68a3.85,3.85,0,0,0-1.36.74,4.41,4.41,0,0,1-1.6.62c-.2,0-.11.33.08.3a4.26,4.26,0,0,0,1.59-.6A4.08,4.08,0,0,1,711,289c.2,0,.12-.34-.08-.31Z" transform="translate(-105.37 -84.7)" fill="#541615"/><path d="M702.48,280.62a19.41,19.41,0,0,1-1.22,2,14.94,14.94,0,0,0-1.15,2.07c-.63,1.37-1.24,2.86-2.56,3.71-.18.1,0,.38.15.27a7.53,7.53,0,0,0,2.56-3.56,17.16,17.16,0,0,1,1.15-2.16,21.1,21.1,0,0,0,1.34-2.17c.09-.18-.18-.34-.27-.16Z" transform="translate(-105.37 -84.7)" fill="#541615"/><path d="M690,299.71a7.22,7.22,0,0,1,2-2.76,6.08,6.08,0,0,0,1.78-2.39,17.44,17.44,0,0,1,3.9-5.86c.14-.15-.08-.37-.22-.23a17.59,17.59,0,0,0-3.84,5.65,6,6,0,0,1-.93,1.75,15.32,15.32,0,0,1-1.25,1.16,7.21,7.21,0,0,0-1.79,2.6c-.07.19.23.27.31.08Z" transform="translate(-105.37 -84.7)" fill="#541615"/><path d="M694.5,292.84a8.21,8.21,0,0,0,1.42-3,15,15,0,0,1,.51-1.7c.23-.58.52-1.14.8-1.69.1-.18-.18-.34-.27-.16a15.64,15.64,0,0,0-1.29,3.24,8.36,8.36,0,0,1-1.44,3.13c-.12.17.15.32.27.16Z" transform="translate(-105.37 -84.7)" fill="#541615"/><path d="M677.07,301.09a22.94,22.94,0,0,1,4.12.73,9.29,9.29,0,0,1,.93.33,2,2,0,0,1,.93.57,4.25,4.25,0,0,1,.32,1,8,8,0,0,0,.41.9c.09.18.36,0,.27-.16a6.57,6.57,0,0,1-.47-1.13,2,2,0,0,0-.34-.88,3.79,3.79,0,0,0-1.73-.87,22.12,22.12,0,0,0-4.44-.81c-.2,0-.2.29,0,.31Z" transform="translate(-105.37 -84.7)" fill="#541615"/><path d="M683.08,294.2c-.28,1.62.35,3.14.48,4.74s-.55,3.22-.08,4.81l.28-.12a.71.71,0,0,1-.17-.47l-.3.08a1.41,1.41,0,0,1,.14.44c0,.17.25.13.3,0a.87.87,0,0,0,.07-.53c0-.2-.32-.21-.31,0s0,.38,0,.57.33.2.32,0-.05-.38-.06-.57h-.31a.87.87,0,0,1-.06.45h.3a2.24,2.24,0,0,0-.16-.52.16.16,0,0,0-.3.08,1.12,1.12,0,0,0,.22.63.16.16,0,0,0,.29-.13c-.45-1.55.23-3.14.1-4.72s-.77-3.08-.5-4.66c0-.19-.27-.28-.3-.08Z" transform="translate(-105.37 -84.7)" fill="#541615"/><path d="M685.87,289.15a12.44,12.44,0,0,1,.14,3.6c-.18,1.12-.76,2.12-1,3.21a20.52,20.52,0,0,0-.1,6.59c0,.2.34.2.32,0a18.51,18.51,0,0,1,.21-7,21.09,21.09,0,0,0,.93-3,13.52,13.52,0,0,0-.16-3.42c0-.2-.35-.2-.32,0Z" transform="translate(-105.37 -84.7)" fill="#541615"/><path d="M692,311.36a32.48,32.48,0,0,0,3.3,4.89c1,1.31,2.26,3,4.15,2.63.2,0,.12-.34-.08-.3-1.9.36-3.17-1.67-4.15-2.95a29.1,29.1,0,0,1-2.94-4.43c-.1-.18-.37,0-.28.16Z" transform="translate(-105.37 -84.7)" fill="#541615"/><path d="M684.26,275.52c.23.55.62,1,.81,1.58s.35,1.22.52,1.83a3.53,3.53,0,0,1,.29,1.86c-.14.47-.6.77-.68,1.28,0,.2.27.29.3.09.09-.52.57-.84.7-1.34a3.39,3.39,0,0,0-.23-1.72c-.19-.66-.36-1.32-.56-2s-.6-1.1-.85-1.7c-.08-.18-.38-.1-.3.09Z" transform="translate(-105.37 -84.7)" fill="#541615"/><path d="M688.48,273.7c-.19.79.46,1.45.34,2.22a2.83,2.83,0,0,1-.58,1.08,4,4,0,0,0-.53,1,2.36,2.36,0,0,1-.66,1.18c-.26.21-.57.37-.83.59a1.46,1.46,0,0,0-.46.86,2.39,2.39,0,0,1-.55,1.27c-.14.15.09.37.22.22a2.17,2.17,0,0,0,.54-.91c.14-.49.11-.91.55-1.27a8.83,8.83,0,0,0,.87-.64,2.32,2.32,0,0,0,.54-1,4.44,4.44,0,0,1,.58-1.2,4,4,0,0,0,.56-1c.29-.86-.49-1.6-.28-2.43a.16.16,0,0,0-.31-.08Z" transform="translate(-105.37 -84.7)" fill="#541615"/><path d="M674.23,282.13c1.25,0,2.27-2,2.27-4.42s-1-4.42-2.27-4.42-2.28,2-2.28,4.42S673,282.13,674.23,282.13Z" transform="translate(-105.37 -84.7)" fill="#672224" stroke="#541615" stroke-miterlimit="10" stroke-width="0.25"/><path d="M668.54,280.11c1.05,0,1.9-1.59,1.9-3.54s-.85-3.54-1.9-3.54-1.89,1.59-1.89,3.54S667.5,280.11,668.54,280.11Z" transform="translate(-105.37 -84.7)" fill="#672224" stroke="#541615" stroke-miterlimit="10" stroke-width="0.25"/><path d="M681.57,282.61c1.32-.12,2.21-2.18,2-4.61s-1.46-4.31-2.78-4.19-2.22,2.19-2,4.62S680.25,282.73,681.57,282.61Z" transform="translate(-105.37 -84.7)" fill="#672224" stroke="#541615" stroke-miterlimit="10" stroke-width="0.25"/><path d="M686.6,279.35c1.26,0,2.28-1.87,2.28-4.17s-1-4.17-2.28-4.17-2.27,1.87-2.27,4.17S685.35,279.35,686.6,279.35Z" transform="translate(-105.37 -84.7)" fill="#672224" stroke="#541615" stroke-miterlimit="10" stroke-width="0.25"/><path d="M685.59,284.16c-.1,2.3.83,4.21,2.08,4.27s2.36-1.76,2.47-4.06-.83-4.21-2.08-4.27S685.7,281.86,685.59,284.16Z" transform="translate(-105.37 -84.7)" fill="#672224" stroke="#541615" stroke-miterlimit="10" stroke-width="0.25"/><path d="M669.05,281.36c-1,.6-1,2.55,0,4.36s2.73,2.8,3.77,2.2,1-2.55,0-4.36S670.08,280.76,669.05,281.36Z" transform="translate(-105.37 -84.7)" fill="#672224" stroke="#541615" stroke-miterlimit="10" stroke-width="0.25"/><path d="M691.78,280.11c1.32,0,2.4-1.59,2.4-3.54s-1.08-3.54-2.4-3.54-2.4,1.59-2.4,3.54S690.45,280.11,691.78,280.11Z" transform="translate(-105.37 -84.7)" fill="#672224" stroke="#541615" stroke-miterlimit="10" stroke-width="0.25"/><path d="M665.49,282.8c.83-.63.72-2.18-.24-3.46s-2.43-1.8-3.27-1.17-.72,2.18.25,3.46S664.65,283.43,665.49,282.8Z" transform="translate(-105.37 -84.7)" fill="#672224" stroke="#541615" stroke-miterlimit="10" stroke-width="0.25"/><path d="M683.74,294c1.18-.09,2-2,1.85-4.31s-1.25-4.09-2.44-4-2,2-1.85,4.31S682.56,294.07,683.74,294Z" transform="translate(-105.37 -84.7)" fill="#672224" stroke="#541615" stroke-miterlimit="10" stroke-width="0.25"/><path d="M692.25,289.1c-1-.5-2.61.71-3.61,2.7s-1,4,0,4.52,2.61-.72,3.61-2.71S693.25,289.6,692.25,289.1Z" transform="translate(-105.37 -84.7)" fill="#672224" stroke="#541615" stroke-miterlimit="10" stroke-width="0.25"/><path d="M676.39,293.47c.71,1.82,2.13,3,3.17,2.55s1.3-2.21.59-4-2.14-3-3.18-2.55S675.67,291.66,676.39,293.47Z" transform="translate(-105.37 -84.7)" fill="#672224" stroke="#541615" stroke-miterlimit="10" stroke-width="0.25"/><path d="M671.14,290.8c-1.44-1.12-3.17-1.31-3.85-.43s-.07,2.5,1.37,3.63,3.17,1.31,3.86.43S672.58,291.92,671.14,290.8Z" transform="translate(-105.37 -84.7)" fill="#672224" stroke="#541615" stroke-miterlimit="10" stroke-width="0.25"/><path d="M659,289.49c2.23,1,4.47.84,5-.37s-.82-3-3-4-4.47-.84-5,.37S656.75,288.49,659,289.49Z" transform="translate(-105.37 -84.7)" fill="#672224" stroke="#541615" stroke-miterlimit="10" stroke-width="0.25"/><path d="M696.08,285.55c1.22.31,2.6-1,3.08-2.86s-.11-3.68-1.33-4-2.59,1-3.08,2.86S694.87,285.24,696.08,285.55Z" transform="translate(-105.37 -84.7)" fill="#672224" stroke="#541615" stroke-miterlimit="10" stroke-width="0.25"/><path d="M696.26,289.33c-1.48,1.85-1.8,4.05-.72,4.92s3.16.06,4.64-1.79,1.81-4,.72-4.92S697.74,287.48,696.26,289.33Z" transform="translate(-105.37 -84.7)" fill="#672224" stroke="#541615" stroke-miterlimit="10" stroke-width="0.25"/><ellipse cx="705.54" cy="286.8" rx="3.66" ry="2.53" transform="translate(24.83 701.12) rotate(-63.06)" fill="#672224" stroke="#541615" stroke-miterlimit="10" stroke-width="0.25"/><path d="M690.67,301.52c1,.9,3,.3,4.47-1.33s1.91-3.67.93-4.57-3-.3-4.47,1.33S689.69,300.63,690.67,301.52Z" transform="translate(-105.37 -84.7)" fill="#672224" stroke="#541615" stroke-miterlimit="10" stroke-width="0.25"/><path d="M676.09,297.16c-1.54-1.08-3.34-1.17-4-.2s0,2.64,1.56,3.72,3.34,1.17,4,.2S677.63,298.25,676.09,297.16Z" transform="translate(-105.37 -84.7)" fill="#672224" stroke="#541615" stroke-miterlimit="10" stroke-width="0.25"/><ellipse cx="662.86" cy="293.87" rx="2.65" ry="4.04" transform="translate(35.23 712.15) rotate(-67.83)" fill="#672224" stroke="#541615" stroke-miterlimit="10" stroke-width="0.25"/><path d="M654.15,296.44c2,.41,3.89-.37,4.17-1.74s-1.13-2.82-3.16-3.24-3.89.37-4.17,1.74S652.12,296,654.15,296.44Z" transform="translate(-105.37 -84.7)" fill="#672224" stroke="#541615" stroke-miterlimit="10" stroke-width="0.25"/><path d="M657.62,299.34c-.19,1.1,1.43,2.31,3.62,2.71s4.14-.18,4.34-1.28-1.43-2.31-3.62-2.7S657.82,298.24,657.62,299.34Z" transform="translate(-105.37 -84.7)" fill="#672224" stroke="#541615" stroke-miterlimit="10" stroke-width="0.25"/><path d="M665.14,303.85c0,1.11,1.8,2,4,2s4-.91,4-2-1.81-2-4-2S665.14,302.73,665.14,303.85Z" transform="translate(-105.37 -84.7)" fill="#672224" stroke="#541615" stroke-miterlimit="10" stroke-width="0.25"/><path d="M653.77,305.11c2.09,0,3.79-1.25,3.79-2.78s-1.7-2.78-3.79-2.78S650,300.8,650,302.33,651.68,305.11,653.77,305.11Z" transform="translate(-105.37 -84.7)" fill="#672224" stroke="#541615" stroke-miterlimit="10" stroke-width="0.25"/><path d="M676.25,304c0,.91,1.68,1.73,3.84,1.82s3.94-.55,4-1.45-1.67-1.73-3.83-1.83S676.29,303.14,676.25,304Z" transform="translate(-105.37 -84.7)" fill="#672224" stroke="#541615" stroke-miterlimit="10" stroke-width="0.25"/><path d="M697.21,305.36c0-1.39-1.87-2.52-4.17-2.52s-4.16,1.13-4.16,2.52,1.86,2.53,4.16,2.53S697.21,306.76,697.21,305.36Z" transform="translate(-105.37 -84.7)" fill="#672224" stroke="#541615" stroke-miterlimit="10" stroke-width="0.25"/><path d="M698.29,302.1c.18,1.26,2,2,4,1.76s3.57-1.56,3.39-2.82-2-2.06-4-1.76S698.11,300.83,698.29,302.1Z" transform="translate(-105.37 -84.7)" fill="#672224" stroke="#541615" stroke-miterlimit="10" stroke-width="0.25"/><ellipse cx="707.27" cy="294.31" rx="3.73" ry="2.49" transform="translate(-164.16 209.72) rotate(-22.6)" fill="#672224" stroke="#541615" stroke-miterlimit="10" stroke-width="0.25"/><path d="M709.61,299.57c.13,1.18,1.86,2,3.87,1.74s3.54-1.36,3.41-2.53-1.87-2-3.88-1.74S709.48,298.39,709.61,299.57Z" transform="translate(-105.37 -84.7)" fill="#672224" stroke="#541615" stroke-miterlimit="10" stroke-width="0.25"/><path d="M682.07,313.54c.87.25,2-1.05,2.55-2.9s.26-3.56-.61-3.82-2,1.05-2.55,2.9S681.2,313.28,682.07,313.54Z" transform="translate(-105.37 -84.7)" fill="#672224" stroke="#541615" stroke-miterlimit="10" stroke-width="0.25"/><path d="M688.6,312.55c1,1.79,2.66,2.8,3.62,2.24s.91-2.47-.12-4.26-2.66-2.79-3.63-2.24S687.56,310.76,688.6,312.55Z" transform="translate(-105.37 -84.7)" fill="#672224" stroke="#541615" stroke-miterlimit="10" stroke-width="0.25"/><path d="M700,312.27c2.3,1,4.6.8,5.13-.43s-.91-3-3.22-4-4.6-.8-5.13.43S697.64,311.28,700,312.27Z" transform="translate(-105.37 -84.7)" fill="#672224" stroke="#541615" stroke-miterlimit="10" stroke-width="0.25"/><path d="M713.13,306.12c0-1.4-2-2.53-4.42-2.53s-4.42,1.13-4.42,2.53,2,2.52,4.42,2.52S713.13,307.51,713.13,306.12Z" transform="translate(-105.37 -84.7)" fill="#672224" stroke="#541615" stroke-miterlimit="10" stroke-width="0.25"/><path d="M713.12,308.77c0,1.33,1.53,2.4,3.41,2.4s3.41-1.07,3.41-2.4-1.53-2.4-3.41-2.4S713.12,307.45,713.12,308.77Z" transform="translate(-105.37 -84.7)" fill="#672224" stroke="#541615" stroke-miterlimit="10" stroke-width="0.25"/><path d="M717.86,314.75c-2.16-.62-4.24,0-4.63,1.36s1,3,3.21,3.6,4.23,0,4.62-1.36S720,315.37,717.86,314.75Z" transform="translate(-105.37 -84.7)" fill="#672224" stroke="#541615" stroke-miterlimit="10" stroke-width="0.25"/><path d="M712.35,316.3c.24-1.29-1.41-2.67-3.69-3.1s-4.31.27-4.55,1.56,1.41,2.67,3.69,3.1S712.11,317.58,712.35,316.3Z" transform="translate(-105.37 -84.7)" fill="#672224" stroke="#541615" stroke-miterlimit="10" stroke-width="0.25"/><path d="M679.19,311.16c-1-1-3.2-.24-5,1.59s-2.53,4.07-1.58,5,3.2.24,5-1.58S680.14,312.11,679.19,311.16Z" transform="translate(-105.37 -84.7)" fill="#672224" stroke="#541615" stroke-miterlimit="10" stroke-width="0.25"/><path d="M668.65,307.48c-2.19.7-3.68,2.18-3.32,3.31s2.43,1.48,4.62.78,3.68-2.17,3.32-3.3S670.85,306.79,668.65,307.48Z" transform="translate(-105.37 -84.7)" fill="#672224" stroke="#541615" stroke-miterlimit="10" stroke-width="0.25"/><path d="M656.72,309.7c.49,1.31,2.48,1.77,4.44,1s3.14-2.4,2.65-3.71-2.48-1.77-4.44-1S656.23,308.39,656.72,309.7Z" transform="translate(-105.37 -84.7)" fill="#672224" stroke="#541615" stroke-miterlimit="10" stroke-width="0.25"/><path d="M652.29,314.31c2.05-.69,3.3-2.47,2.8-4s-2.58-2.21-4.63-1.53-3.31,2.47-2.8,4S650.23,315,652.29,314.31Z" transform="translate(-105.37 -84.7)" fill="#672224" stroke="#541615" stroke-miterlimit="10" stroke-width="0.25"/><path d="M684.71,322.53c1.32,0,2.4-1.69,2.4-3.78S686,315,684.71,315s-2.4,1.69-2.4,3.79S683.38,322.53,684.71,322.53Z" transform="translate(-105.37 -84.7)" fill="#672224" stroke="#541615" stroke-miterlimit="10" stroke-width="0.25"/><path d="M698,324.08c1.14-.56,1.1-3-.09-5.44s-3.08-4-4.23-3.43-1.1,3,.09,5.44S696.9,324.64,698,324.08Z" transform="translate(-105.37 -84.7)" fill="#672224" stroke="#541615" stroke-miterlimit="10" stroke-width="0.25"/><path d="M701.62,323c2.07,1.35,4.37,1.48,5.15.29s-.26-3.25-2.33-4.6-4.37-1.48-5.14-.29S699.56,321.62,701.62,323Z" transform="translate(-105.37 -84.7)" fill="#672224" stroke="#541615" stroke-miterlimit="10" stroke-width="0.25"/><path d="M714.65,321.46c-1.86-1.44-4.06-1.7-4.91-.6s0,3.17,1.83,4.6,4.07,1.7,4.92.59S716.52,322.89,714.65,321.46Z" transform="translate(-105.37 -84.7)" fill="#672224" stroke="#541615" stroke-miterlimit="10" stroke-width="0.25"/><path d="M711,326c-2-1.59-4.44-1.9-5.39-.69s-.06,3.47,2,5.07,4.45,1.89,5.39.69S713.08,327.62,711,326Z" transform="translate(-105.37 -84.7)" fill="#672224" stroke="#541615" stroke-miterlimit="10" stroke-width="0.25"/><path d="M702.87,331.36c-1.06.83-.89,2.82.39,4.46s3.18,2.29,4.24,1.46.88-2.82-.4-4.46S703.93,330.53,702.87,331.36Z" transform="translate(-105.37 -84.7)" fill="#672224" stroke="#541615" stroke-miterlimit="10" stroke-width="0.25"/><path d="M697,324.85c-1.29.67-1.45,2.92-.35,5s3,3.24,4.32,2.56,1.45-2.92.35-5S698.31,324.17,697,324.85Z" transform="translate(-105.37 -84.7)" fill="#672224" stroke="#541615" stroke-miterlimit="10" stroke-width="0.25"/><path d="M692.21,330c1.3-.28,1.93-2.44,1.41-4.83s-2-4.09-3.28-3.81-1.93,2.45-1.41,4.83S690.92,330.29,692.21,330Z" transform="translate(-105.37 -84.7)" fill="#672224" stroke="#541615" stroke-miterlimit="10" stroke-width="0.25"/><path d="M697.38,334c-1.35.35-2.08,2.05-1.62,3.8s1.91,2.89,3.26,2.54,2.07-2.05,1.62-3.8S698.73,333.68,697.38,334Z" transform="translate(-105.37 -84.7)" fill="#672224" stroke="#541615" stroke-miterlimit="10" stroke-width="0.25"/><path d="M675.93,325.23c1.27.73,3.29-.39,4.51-2.51s1.18-4.42-.09-5.15-3.28.39-4.5,2.5S674.66,324.49,675.93,325.23Z" transform="translate(-105.37 -84.7)" fill="#672224" stroke="#541615" stroke-miterlimit="10" stroke-width="0.25"/><path d="M685.55,327.84c.39-2.2-.56-4.21-2.14-4.49s-3.18,1.26-3.58,3.46.56,4.2,2.14,4.49S685.15,330,685.55,327.84Z" transform="translate(-105.37 -84.7)" fill="#672224" stroke="#541615" stroke-miterlimit="10" stroke-width="0.25"/><path d="M686.09,330.35c-1.4,0-2.53,1.81-2.53,4s1.13,4.05,2.53,4.05,2.52-1.81,2.52-4.05S687.48,330.35,686.09,330.35Z" transform="translate(-105.37 -84.7)" fill="#672224" stroke="#541615" stroke-miterlimit="10" stroke-width="0.25"/><path d="M679.88,333.46c-1.47-.5-3.28.91-4,3.15s-.19,4.47,1.28,5,3.28-.91,4-3.16S681.35,334,679.88,333.46Z" transform="translate(-105.37 -84.7)" fill="#672224" stroke="#541615" stroke-miterlimit="10" stroke-width="0.25"/><path d="M657.82,318c-.65-1.24-2.88-1.34-5-.24s-3.28,3-2.63,4.24,2.88,1.34,5,.23S658.47,319.24,657.82,318Z" transform="translate(-105.37 -84.7)" fill="#672224" stroke="#541615" stroke-miterlimit="10" stroke-width="0.25"/><path d="M662,326.84c1.71-1.54,2.28-3.7,1.27-4.82s-3.21-.79-4.93.75-2.28,3.7-1.27,4.82S660.32,328.37,662,326.84Z" transform="translate(-105.37 -84.7)" fill="#672224" stroke="#541615" stroke-miterlimit="10" stroke-width="0.25"/><path d="M663,329.76c-1.08-.77-2.88-.11-4,1.48s-1.19,3.5-.11,4.27,2.87.11,4-1.48S664.1,330.53,663,329.76Z" transform="translate(-105.37 -84.7)" fill="#672224" stroke="#541615" stroke-miterlimit="10" stroke-width="0.25"/><path d="M668.75,325.64c1.37.91,3.44.2,4.62-1.57s1-4-.34-4.87-3.44-.2-4.62,1.57S667.38,324.73,668.75,325.64Z" transform="translate(-105.37 -84.7)" fill="#672224" stroke="#541615" stroke-miterlimit="10" stroke-width="0.25"/><path d="M666.19,318.6c2.66-1.39,4.25-3.6,3.55-5s-3.43-1.32-6.09.06-4.25,3.61-3.54,5S663.53,320,666.19,318.6Z" transform="translate(-105.37 -84.7)" fill="#672224" stroke="#541615" stroke-miterlimit="10" stroke-width="0.25"/><path d="M670.57,334.06c-1.06-.79-2.84-.2-4,1.32s-1.17,3.38-.1,4.17,2.84.19,4-1.32S671.64,334.85,670.57,334.06Z" transform="translate(-105.37 -84.7)" fill="#672224" stroke="#541615" stroke-miterlimit="10" stroke-width="0.25"/><path d="M676.9,331.18c1.19-2.05,1.12-4.31-.15-5s-3.25.34-4.44,2.39-1.12,4.31.15,5.05S675.72,333.24,676.9,331.18Z" transform="translate(-105.37 -84.7)" fill="#672224" stroke="#541615" stroke-miterlimit="10" stroke-width="0.25"/><ellipse cx="667.41" cy="330.62" rx="3.79" ry="2.53" transform="translate(-57.99 658.6) rotate(-60)" fill="#672224" stroke="#541615" stroke-miterlimit="10" stroke-width="0.25"/><path d="M691.27,331.33c-1.32.16-2.16,2.05-1.89,4.22s1.55,3.79,2.87,3.62,2.16-2.05,1.89-4.22S692.58,331.16,691.27,331.33Z" transform="translate(-105.37 -84.7)" fill="#672224" stroke="#541615" stroke-miterlimit="10" stroke-width="0.25"/><path d="M674.25,280.61c.69,0,1.24-1.24,1.24-2.78s-.55-2.78-1.24-2.78S673,276.3,673,277.83,673.57,280.61,674.25,280.61Z" transform="translate(-105.37 -84.7)" fill="#fffbf0" stroke="#391211" stroke-miterlimit="10" stroke-width="0.25"/><path d="M668.41,278.84c.56,0,1-1,1-2.27s-.46-2.27-1-2.27-1,1-1,2.27S667.85,278.84,668.41,278.84Z" transform="translate(-105.37 -84.7)" fill="#fffbf0" stroke="#391211" stroke-miterlimit="10" stroke-width="0.25"/><path d="M686.51,277.37c.63,0,1.14-1.13,1.14-2.53s-.51-2.52-1.14-2.52-1.14,1.13-1.14,2.52S685.88,277.37,686.51,277.37Z" transform="translate(-105.37 -84.7)" fill="#fffbf0" stroke="#391211" stroke-miterlimit="10" stroke-width="0.25"/><path d="M687.9,281.61c-.7,0-1.33,1.14-1.4,2.61s.45,2.7,1.15,2.74,1.34-1.14,1.41-2.62S688.61,281.65,687.9,281.61Z" transform="translate(-105.37 -84.7)" fill="#fffbf0" stroke="#391211" stroke-miterlimit="10" stroke-width="0.25"/><path d="M669.7,282c-.5.25-.34,1.57.36,2.94s1.65,2.27,2.14,2,.34-1.56-.35-2.93S670.19,281.71,669.7,282Z" transform="translate(-105.37 -84.7)" fill="#fffbf0" stroke="#391211" stroke-miterlimit="10" stroke-width="0.25"/><path d="M691.53,278.59c.62,0,1.13-.85,1.13-1.89s-.51-1.9-1.13-1.9-1.14.85-1.14,1.9S690.9,278.59,691.53,278.59Z" transform="translate(-105.37 -84.7)" fill="#fffbf0" stroke="#391211" stroke-miterlimit="10" stroke-width="0.25"/><path d="M664.68,282c.41-.31.24-1.2-.35-2s-1.41-1.19-1.82-.88-.24,1.19.36,2S664.28,282.32,664.68,282Z" transform="translate(-105.37 -84.7)" fill="#fffbf0" stroke="#391211" stroke-miterlimit="10" stroke-width="0.25"/><path d="M683.6,293c.6,0,1-1.41.88-3.05s-.69-2.95-1.3-2.9-1,1.41-.88,3.05S683,293,683.6,293Z" transform="translate(-105.37 -84.7)" fill="#fffbf0" stroke="#391211" stroke-miterlimit="10" stroke-width="0.25"/><path d="M689,295.72c.54.27,1.54-.65,2.24-2.05s.84-2.76.3-3-1.54.65-2.24,2.06S688.43,295.46,689,295.72Z" transform="translate(-105.37 -84.7)" fill="#fffbf0" stroke="#391211" stroke-miterlimit="10" stroke-width="0.25"/><path d="M679.58,295.23c.55-.29.46-1.54-.19-2.8s-1.62-2.06-2.17-1.78-.46,1.54.19,2.8S679,295.51,679.58,295.23Z" transform="translate(-105.37 -84.7)" fill="#fffbf0" stroke="#391211" stroke-miterlimit="10" stroke-width="0.25"/><path d="M669.34,293.09c.92.72,2,.91,2.34.43s-.07-1.45-1-2.17-2-.9-2.34-.42S668.42,292.38,669.34,293.09Z" transform="translate(-105.37 -84.7)" fill="#fffbf0" stroke="#391211" stroke-miterlimit="10" stroke-width="0.25"/><path d="M659.39,288.22c1.47.66,2.88.72,3.15.12s-.71-1.61-2.18-2.27-2.89-.73-3.15-.13S657.92,287.55,659.39,288.22Z" transform="translate(-105.37 -84.7)" fill="#fffbf0" stroke="#391211" stroke-miterlimit="10" stroke-width="0.25"/><path d="M696.37,284.3c.64.17,1.38-.57,1.66-1.65s0-2.09-.66-2.25-1.38.58-1.66,1.66S695.73,284.14,696.37,284.3Z" transform="translate(-105.37 -84.7)" fill="#fffbf0" stroke="#391211" stroke-miterlimit="10" stroke-width="0.25"/><path d="M697.47,290.2c-1,1.23-1.34,2.58-.79,3s1.79-.2,2.77-1.43,1.33-2.57.79-3S698.45,289,697.47,290.2Z" transform="translate(-105.37 -84.7)" fill="#fffbf0" stroke="#391211" stroke-miterlimit="10" stroke-width="0.25"/><path d="M704.57,288.5c.56.38,1.57-.15,2.25-1.18s.78-2.16.22-2.54-1.57.16-2.26,1.19S704,288.13,704.57,288.5Z" transform="translate(-105.37 -84.7)" fill="#fffbf0" stroke="#391211" stroke-miterlimit="10" stroke-width="0.25"/><path d="M691.2,300.35c.4.43,1.58,0,2.64-1s1.6-2.13,1.2-2.56-1.58,0-2.64,1S690.8,299.92,691.2,300.35Z" transform="translate(-105.37 -84.7)" fill="#fffbf0" stroke="#391211" stroke-miterlimit="10" stroke-width="0.25"/><path d="M674.18,299.68c1.05.74,2.15,1,2.46.54s-.29-1.4-1.34-2.14-2.16-1-2.47-.54S673.12,298.94,674.18,299.68Z" transform="translate(-105.37 -84.7)" fill="#fffbf0" stroke="#391211" stroke-miterlimit="10" stroke-width="0.25"/><path d="M660.27,292.8c-.26.63.7,1.61,2.14,2.2s2.81.55,3.06-.08-.7-1.61-2.14-2.2S660.53,292.17,660.27,292.8Z" transform="translate(-105.37 -84.7)" fill="#fffbf0" stroke="#391211" stroke-miterlimit="10" stroke-width="0.25"/><path d="M654.62,292.71c-1.34-.22-2.51.15-2.63.83s.87,1.42,2.21,1.65,2.5-.14,2.62-.83S656,292.94,654.62,292.71Z" transform="translate(-105.37 -84.7)" fill="#fffbf0" stroke="#391211" stroke-miterlimit="10" stroke-width="0.25"/><path d="M661.93,298.78c-1.48-.27-2.77,0-2.88.6s1,1.3,2.49,1.57,2.77,0,2.88-.6S663.41,299,661.93,298.78Z" transform="translate(-105.37 -84.7)" fill="#fffbf0" stroke="#391211" stroke-miterlimit="10" stroke-width="0.25"/><ellipse cx="563.93" cy="219.02" rx="2.65" ry="1.14" fill="#fffbf0" stroke="#391211" stroke-miterlimit="10" stroke-width="0.25"/><path d="M653.64,304.35c1.47,0,2.66-.73,2.66-1.64s-1.19-1.64-2.66-1.64-2.65.73-2.65,1.64S652.18,304.35,653.64,304.35Z" transform="translate(-105.37 -84.7)" fill="#fffbf0" stroke="#391211" stroke-miterlimit="10" stroke-width="0.25"/><path d="M682.55,304.54c.05-.4-1-.86-2.31-1s-2.43,0-2.48.43,1,.87,2.3,1S682.5,305,682.55,304.54Z" transform="translate(-105.37 -84.7)" fill="#fffbf0" stroke="#391211" stroke-miterlimit="10" stroke-width="0.25"/><path d="M690.64,305.36c0,.7,1.08,1.26,2.4,1.26s2.4-.56,2.4-1.26-1.07-1.26-2.4-1.26S690.64,304.66,690.64,305.36Z" transform="translate(-105.37 -84.7)" fill="#fffbf0" stroke="#391211" stroke-miterlimit="10" stroke-width="0.25"/><path d="M700,301.68c.09.66,1.08,1.06,2.2.9s2-.82,1.86-1.48-1.08-1.07-2.2-.91S699.87,301,700,301.68Z" transform="translate(-105.37 -84.7)" fill="#fffbf0" stroke="#391211" stroke-miterlimit="10" stroke-width="0.25"/><path d="M705.05,295.29c.26.63,1.51.7,2.79.17s2.1-1.47,1.84-2.09-1.51-.7-2.78-.17S704.79,294.67,705.05,295.29Z" transform="translate(-105.37 -84.7)" fill="#fffbf0" stroke="#391211" stroke-miterlimit="10" stroke-width="0.25"/><path d="M713.19,299.88c1.21-.18,2.13-.76,2-1.28s-1.13-.8-2.34-.62-2.13.76-2,1.29S712,300.07,713.19,299.88Z" transform="translate(-105.37 -84.7)" fill="#fffbf0" stroke="#391211" stroke-miterlimit="10" stroke-width="0.25"/><path d="M682.1,310.49c-.41,1.41-.4,2.65,0,2.78s1.09-.93,1.5-2.34.4-2.66,0-2.78S682.51,309.07,682.1,310.49Z" transform="translate(-105.37 -84.7)" fill="#fffbf0" stroke="#391211" stroke-miterlimit="10" stroke-width="0.25"/><path d="M691.49,313.43c.45-.3.14-1.57-.69-2.83s-1.87-2.06-2.33-1.76-.14,1.57.69,2.83S691,313.73,691.49,313.43Z" transform="translate(-105.37 -84.7)" fill="#fffbf0" stroke="#391211" stroke-miterlimit="10" stroke-width="0.25"/><path d="M698,309c-.26.66.67,1.65,2.08,2.21s2.77.48,3-.18-.67-1.65-2.08-2.22S698.29,308.34,698,309Z" transform="translate(-105.37 -84.7)" fill="#fffbf0" stroke="#391211" stroke-miterlimit="10" stroke-width="0.25"/><path d="M705.55,306.25c0,.76,1.19,1.38,2.66,1.38s2.65-.62,2.65-1.38-1.19-1.39-2.65-1.39S705.55,305.48,705.55,306.25Z" transform="translate(-105.37 -84.7)" fill="#fffbf0" stroke="#391211" stroke-miterlimit="10" stroke-width="0.25"/><path d="M713.83,308.9c0,.69,1,1.26,2.29,1.26s2.3-.57,2.3-1.26-1-1.27-2.3-1.27S713.83,308.2,713.83,308.9Z" transform="translate(-105.37 -84.7)" fill="#fffbf0" stroke="#391211" stroke-miterlimit="10" stroke-width="0.25"/><path d="M717.26,315.89c-1.38-.4-2.66-.18-2.85.47s.78,1.52,2.16,1.91,2.66.19,2.85-.47S718.64,316.29,717.26,315.89Z" transform="translate(-105.37 -84.7)" fill="#fffbf0" stroke="#391211" stroke-miterlimit="10" stroke-width="0.25"/><path d="M708.68,314.53c-1.49-.28-2.81.07-2.94.79s1,1.51,2.46,1.79,2.81-.07,2.95-.79S710.18,314.81,708.68,314.53Z" transform="translate(-105.37 -84.7)" fill="#fffbf0" stroke="#391211" stroke-miterlimit="10" stroke-width="0.25"/><path d="M677.76,312.43c-.49-.49-1.8,0-2.94,1.18s-1.67,2.46-1.18,2.95,1.81,0,2.94-1.18S678.25,312.92,677.76,312.43Z" transform="translate(-105.37 -84.7)" fill="#fffbf0" stroke="#391211" stroke-miterlimit="10" stroke-width="0.25"/><path d="M668.9,308.78c-1.34.43-2.29,1.21-2.12,1.74s1.39.62,2.74.2,2.29-1.21,2.12-1.74S670.24,308.35,668.9,308.78Z" transform="translate(-105.37 -84.7)" fill="#fffbf0" stroke="#391211" stroke-miterlimit="10" stroke-width="0.25"/><path d="M660.36,309.64c1.49-.42,2.54-1.31,2.35-2s-1.56-.9-3.05-.48-2.53,1.31-2.34,2S658.87,310.06,660.36,309.64Z" transform="translate(-105.37 -84.7)" fill="#fffbf0" stroke="#391211" stroke-miterlimit="10" stroke-width="0.25"/><path d="M653.44,311c-.23-.71-1.47-.94-2.77-.51s-2.16,1.36-1.93,2.07,1.48.94,2.78.5S653.68,311.66,653.44,311Z" transform="translate(-105.37 -84.7)" fill="#fffbf0" stroke="#391211" stroke-miterlimit="10" stroke-width="0.25"/><ellipse cx="579.46" cy="233.79" rx="1.26" ry="2.78" fill="#fffbf0" stroke="#391211" stroke-miterlimit="10" stroke-width="0.25"/><path d="M697.61,322.65c.54-.35.22-1.84-.73-3.32s-2.16-2.41-2.71-2.07-.22,1.84.73,3.33S697.06,323,697.61,322.65Z" transform="translate(-105.37 -84.7)" fill="#fffbf0" stroke="#391211" stroke-miterlimit="10" stroke-width="0.25"/><path d="M705.49,322.54c.32-.5-.45-1.57-1.72-2.4s-2.56-1.1-2.88-.61.45,1.57,1.72,2.4S705.17,323,705.49,322.54Z" transform="translate(-105.37 -84.7)" fill="#fffbf0" stroke="#391211" stroke-miterlimit="10" stroke-width="0.25"/><path d="M713.78,322.78c-1.17-.9-2.44-1.2-2.84-.69s.22,1.67,1.39,2.57,2.44,1.21,2.84.69S715,323.68,713.78,322.78Z" transform="translate(-105.37 -84.7)" fill="#fffbf0" stroke="#391211" stroke-miterlimit="10" stroke-width="0.25"/><path d="M710.23,327.25c-1.28-1-2.7-1.35-3.15-.77s.22,1.87,1.5,2.88,2.7,1.35,3.16.77S711.52,328.26,710.23,327.25Z" transform="translate(-105.37 -84.7)" fill="#fffbf0" stroke="#391211" stroke-miterlimit="10" stroke-width="0.25"/><path d="M703.73,332.62c-.59.46-.44,1.63.33,2.63s1.88,1.42,2.47,1,.44-1.64-.34-2.63S704.32,332.16,703.73,332.62Z" transform="translate(-105.37 -84.7)" fill="#fffbf0" stroke="#391211" stroke-miterlimit="10" stroke-width="0.25"/><ellipse cx="698.76" cy="328.84" rx="1.21" ry="2.72" transform="translate(-178.5 219.68) rotate(-23.39)" fill="#fffbf0" stroke="#391211" stroke-miterlimit="10" stroke-width="0.25"/><path d="M691.85,328.75c.66-.14.92-1.52.58-3.08s-1.15-2.71-1.8-2.57-.92,1.52-.58,3.08S691.2,328.89,691.85,328.75Z" transform="translate(-105.37 -84.7)" fill="#fffbf0" stroke="#391211" stroke-miterlimit="10" stroke-width="0.25"/><path d="M697.67,335.17c-.54.14-.72,1.25-.41,2.47s1,2.1,1.55,2,.72-1.25.41-2.47S698.21,335,697.67,335.17Z" transform="translate(-105.37 -84.7)" fill="#fffbf0" stroke="#391211" stroke-miterlimit="10" stroke-width="0.25"/><path d="M679.42,319c-.63-.28-1.67.64-2.31,2.07s-.65,2.81,0,3.09,1.67-.64,2.32-2.06S680.06,319.24,679.42,319Z" transform="translate(-105.37 -84.7)" fill="#fffbf0" stroke="#391211" stroke-miterlimit="10" stroke-width="0.25"/><path d="M683.14,324.81c-.76-.14-1.6.91-1.86,2.35s.15,2.71.92,2.85,1.6-.91,1.86-2.35S683.91,325,683.14,324.81Z" transform="translate(-105.37 -84.7)" fill="#fffbf0" stroke="#391211" stroke-miterlimit="10" stroke-width="0.25"/><path d="M686,331.62c-.77,0-1.39,1.13-1.39,2.52s.62,2.53,1.39,2.53,1.39-1.13,1.39-2.53S686.73,331.62,686,331.62Z" transform="translate(-105.37 -84.7)" fill="#fffbf0" stroke="#391211" stroke-miterlimit="10" stroke-width="0.25"/><path d="M679.23,335.23c-.65-.22-1.55.68-2,2s-.3,2.59.36,2.81,1.55-.68,2-2S679.88,335.45,679.23,335.23Z" transform="translate(-105.37 -84.7)" fill="#fffbf0" stroke="#391211" stroke-miterlimit="10" stroke-width="0.25"/><path d="M653.4,318.71c-1.36.72-2.17,1.83-1.83,2.48s1.72.61,3.08-.1,2.17-1.82,1.83-2.48S654.75,318,653.4,318.71Z" transform="translate(-105.37 -84.7)" fill="#fffbf0" stroke="#391211" stroke-miterlimit="10" stroke-width="0.25"/><path d="M661.46,323.42c-.53-.59-1.73-.36-2.69.5s-1.31,2-.79,2.62,1.73.36,2.69-.5S662,324,661.46,323.42Z" transform="translate(-105.37 -84.7)" fill="#fffbf0" stroke="#391211" stroke-miterlimit="10" stroke-width="0.25"/><path d="M662.06,331c-.53-.35-1.49.16-2.13,1.14s-.73,2.06-.19,2.42,1.49-.17,2.13-1.15S662.6,331.31,662.06,331Z" transform="translate(-105.37 -84.7)" fill="#fffbf0" stroke="#391211" stroke-miterlimit="10" stroke-width="0.25"/><path d="M672,320.85c-.58-.38-1.67.24-2.43,1.39s-.91,2.39-.33,2.77,1.67-.23,2.43-1.38S672.55,321.24,672,320.85Z" transform="translate(-105.37 -84.7)" fill="#fffbf0" stroke="#391211" stroke-miterlimit="10" stroke-width="0.25"/><path d="M667.81,314.5c-.33-.66-1.88-.56-3.48.23s-2.62,2-2.3,2.62,1.89.55,3.48-.24S668.13,315.15,667.81,314.5Z" transform="translate(-105.37 -84.7)" fill="#fffbf0" stroke="#391211" stroke-miterlimit="10" stroke-width="0.25"/><path d="M667.35,336c-.68.91-.77,2-.19,2.43s1.59,0,2.26-.9.77-2,.19-2.43S668,335.09,667.35,336Z" transform="translate(-105.37 -84.7)" fill="#fffbf0" stroke="#391211" stroke-miterlimit="10" stroke-width="0.25"/><path d="M676,327.86c-.64-.37-1.75.33-2.47,1.58s-.78,2.56-.13,2.93,1.75-.34,2.47-1.58S676.68,328.23,676,327.86Z" transform="translate(-105.37 -84.7)" fill="#fffbf0" stroke="#391211" stroke-miterlimit="10" stroke-width="0.25"/><path d="M668.43,331.1c.6-1,.56-2.17-.09-2.55s-1.65.17-2.25,1.2-.56,2.18.09,2.55S667.83,332.14,668.43,331.1Z" transform="translate(-105.37 -84.7)" fill="#fffbf0" stroke="#391211" stroke-miterlimit="10" stroke-width="0.25"/><path d="M691.43,332.89c-.74.09-1.2,1.26-1,2.61s.9,2.37,1.64,2.28,1.19-1.26,1-2.61S692.16,332.79,691.43,332.89Z" transform="translate(-105.37 -84.7)" fill="#fffbf0" stroke="#391211" stroke-miterlimit="10" stroke-width="0.25"/><path d="M681.31,281.14c.63-.06,1-1.41.88-3s-.77-2.87-1.4-2.81-1,1.41-.89,3S680.68,281.19,681.31,281.14Z" transform="translate(-105.37 -84.7)" fill="#fffbf0" stroke="#391211" stroke-miterlimit="10" stroke-width="0.25"/><path d="M645.44,308.14c.5-17.43,10.34-28.67,20.2-35.36,5.84-4,11.11-9.8,11.11-13.89h0c1.21,3.44,6.55,7.44,13.89,11.11,12.63,6.07,28.21,17.33,32.84,38.39,3.28,21.72-12.13,38.9-32.33,32.33C665.89,355.37,643.92,332.13,645.44,308.14Z" transform="translate(-105.37 -84.7)" fill="none" stroke="#381211" stroke-miterlimit="10" stroke-width="1.01"/><path d="M707.31,413.69c0,8.56-12.88,16-30,16-27,0-30-8.44-30-17,1-16,12.88-14,30-14S709.31,402.69,707.31,413.69ZM670.94,362.4a63.66,63.66,0,0,0,25.48-2.61c19-6.14,34.6-21,34.88-42.81.13-9.37-4-20.09-11.61-30.06-5.52-7.24-13.09-13.48-21.47-21.46-3.2-3-6.53-5.6-9.38-8.85-4.47-5.12-8-9.65-9.56-14.89-.89-3.07-1.9-5.95-4.29-7.83-2.63-2.06-4.2-3.85-6.32-5.81-2.63-2.44-4.44-.44-6.06,1-2.26,2,4.84,1.74,3.54,13.39-.69,6.13-5.24,13.19-5.56,13.63-6.13,8.42-11.85,13.12-19.7,22-12.21,13.76-17.8,29.05-17.3,36.74a45,45,0,0,0,7.48,24.59c3.77,5.72,7.24,8.27,9.24,10.27s-.32,4.43-.32,4.43c-18.88,20.74-8.57,35.65-5.68,37.57s0,3,0,3c-21,11-20.79,29.4-15,40,6,11,40,24,71,18s43-21,48-35-2-42-33-44c-26-2-33,0-43-2-4.93-1.23-5.3-4-4-6.78a5.49,5.49,0,0,1,5-3.22h.07Z" transform="translate(-105.37 -84.7)" fill="none" stroke="#39431c" stroke-miterlimit="10" stroke-width="3"/></svg>